<?xml version="1.0" encoding="utf-8"?>
<!-- Generator: Adobe Illustrator 20.1.0, SVG Export Plug-In . SVG Version: 6.00 Build 0)  -->
<svg version="1.1" id="Слой_1" xmlns="http://www.w3.org/2000/svg" xmlns:xlink="http://www.w3.org/1999/xlink" x="0px" y="0px"
	 viewBox="0 0 65.382 62.465" style="enable-background:new 0 0 65.382 62.465;" xml:space="preserve">
<path class="st0" d="M26.012,54.101c0.37-0.51,3.604-2.398,5.372-5.069c4.356-6.58,11.908-33.17,15.466-38.609
	c1.999-3.057,5.194-6.141,8.329-8.08c0.916-0.567,2.522-1.187,3.232-2.191c-5.583-0.254-17.116-0.361-21.667,1.097
	c-2.799,0.897-5.237,2.252-7.114,4.067c-1.101,1.064-4.097,4.291-4.29,6.532c1.203-1.537,3.86-3.597,6-4.83
	c2.492-1.436,4.976-2.267,8.276-2.568c-1.9,1.445-8.944,3.631-14.062,10.553c-8.168,11.049-10.896,32.622-19.083,41.89
	C3.872,59.835,0.384,61.434,0,62.442l43.218,0.015c6.289,0,8.96,0.359,14.871-3.775c3.427-2.396,7.113-7.985,7.293-11.111
	c-3.091,3.928-6.234,6.575-12.33,6.576L26.012,54.101L26.012,54.101z"/>
</svg>
