<?xml version="1.0" encoding="utf-8"?>
<!-- Generator: Adobe Illustrator 20.1.0, SVG Export Plug-In . SVG Version: 6.00 Build 0)  -->
<svg version="1.1" id="Слой_1" xmlns="http://www.w3.org/2000/svg" xmlns:xlink="http://www.w3.org/1999/xlink" x="0px" y="0px"
	 viewBox="0 0 340.303 156.613" style="enable-background:new 0 0 340.303 156.613;" xml:space="preserve">
<style type="text/css">
	.st0{fill-rule:evenodd;clip-rule:evenodd;fill:url(#SVGID_1_);}
	.st1{fill-rule:evenodd;clip-rule:evenodd;fill:#FDC100;}
</style>
<g>
	<linearGradient id="SVGID_1_" gradientUnits="userSpaceOnUse" x1="233.9309" y1="72.9372" x2="168.7132" y2="127.6614">
		<stop  offset="0" style="stop-color:#FFED00"/>
		<stop  offset="1" style="stop-color:#C90C0F"/>
	</linearGradient>
	<path class="st0" d="M233.797,18.168c-1.045-0.253-3.031,1.008-3.646,2.158c-0.364,0.68-0.072,2.925,0.53,3.521
		C231.328,21.717,231.857,19.559,233.797,18.168L233.797,18.168z M287.556,128.662c0.134-1.577,1.345-2.924,2.788-3.193
		c0.133-0.025,0.298-0.052,0.406,0.003c0.177,0.092,0.319,0.252,0.476,0.383c-0.132,0.142-0.24,0.333-0.402,0.415
		c-0.393,0.199-0.813,0.343-1.219,0.517c-0.737,0.315-1.152,0.898-1.362,1.652c-0.03,0.109-0.081,0.229-0.161,0.304
		c-0.099,0.093-0.238,0.145-0.36,0.214C287.651,128.832,287.581,128.707,287.556,128.662L287.556,128.662z M285.639,73.226
		c0.471-0.675,0.889-1.397,1.427-2.016c0.807-0.927,1.69-1.788,2.557-2.661c0.175-0.176,0.418-0.288,0.639-0.413
		c0.288-0.163,0.686-0.415,0.864-0.031c0.115,0.248-0.02,0.763-0.229,0.977c-0.358,0.368-0.901,0.547-1.296,0.888
		c-0.943,0.814-1.844,1.676-2.764,2.517c-0.328,0.3-0.658,0.596-0.988,0.894C285.78,73.33,285.709,73.278,285.639,73.226
		L285.639,73.226z M287.719,80.038c0.189,0.688-0.229,1.075-0.58,1.433c-0.995,1.015-1.894,2.091-2.345,3.461
		c-0.266,0.808-0.441,1.645-0.682,2.462c-0.128,0.436-0.306,0.857-0.545,1.26c-0.068-1.81,0.272-3.544,0.97-5.194
		C285.17,81.963,286.246,80.843,287.719,80.038L287.719,80.038z M280.889,106.019c0.128,0.215,0.305,0.415,0.375,0.648
		c0.565,1.883,1.305,3.7,2.313,5.379c0.547,0.91,1.268,1.746,2.045,2.474c0.401,0.376,1.093,0.443,1.655,0.648
		c0.211,0.077,0.423,0.15,0.659,0.233c-0.745,0.903-2.417,1.019-3.199,0.204c-0.855-0.891-1.645-1.844-2.089-3.035
		c-0.415-1.114-0.921-2.196-1.285-3.325c-0.327-1.012-0.515-2.07-0.764-3.107C280.695,106.099,280.792,106.059,280.889,106.019
		L280.889,106.019z M284.368,79.393c0.056,0.043,0.112,0.086,0.168,0.128c0.142-0.137,0.297-0.262,0.422-0.412
		c0.733-0.891,1.392-1.854,2.202-2.668c1.395-1.402,2.856-2.742,4.34-4.052c0.987-0.872,1.969-1.754,3.415-1.903
		c0.717-0.074,1.701-1.958,1.602-2.742c-0.039-0.313-0.211-0.349-0.454-0.209c-0.676,0.391-1.394,0.723-2.013,1.189
		c-1.172,0.881-2.349,1.774-3.412,2.78c-1.953,1.849-3.616,3.96-5.192,6.134C285.044,78.192,284.725,78.806,284.368,79.393
		L284.368,79.393z M273.399,116.606c-1.216-2.243,0.465-8.508,2.689-10.17c0,0.267-0.005,0.468,0.001,0.669
		c0.037,1.292-0.092,2.617,0.159,3.866c0.281,1.4,0.931,2.722,1.37,4.094c0.218,0.683,0.373,1.394,0.469,2.105
		c0.175,1.298,0.259,2.607,0.435,3.905c0.05,0.366,0.285,0.706,0.439,1.056c0.097,0.22,0.199,0.436,0.242,0.681
		c-1.902-1.063-2.414-2.93-2.846-4.864c-0.488,1.065-0.239,2.075,0.194,3.087c-0.524,0.183-0.681-0.168-0.855-0.507
		c-0.773-1.504-1.445-3.043-1.656-4.744c-0.011-0.092-0.055-0.18-0.14-0.449C273.707,115.821,273.575,116.157,273.399,116.606
		L273.399,116.606z M304.309,59.652c0.508-0.466,0.962-1.016,1.535-1.38c0.935-0.594,1.954-1.053,2.922-1.597
		c0.337-0.189,0.628-0.461,0.94-0.694c-0.03-0.063-0.061-0.126-0.09-0.188c-0.274,0.032-0.547,0.067-0.821,0.096
		c-1.819,0.192-3.652,0.199-5.445,0.678c-2.231,0.596-4.151,1.674-5.788,3.288c-0.267,0.263-0.607,0.451-1.024,0.579
		c0.042-0.113,0.06-0.245,0.131-0.335c1.09-1.405,2.388-2.574,3.84-3.612c1.653-1.182,3.577-1.757,5.365-2.632
		c0.687-0.336,1.359-0.709,2.001-1.122c0.797-0.513,0.812-1.167,0.098-1.795c-0.073-0.065-0.147-0.131-0.205-0.208
		c-0.032-0.041-0.032-0.107-0.09-0.321c2.107,0.296,3.824,1.288,5.558,2.239c-0.007,0.077-0.014,0.154-0.021,0.23
		c-0.219,0-0.439-0.018-0.655,0.004c-0.514,0.05-1.036,0.079-1.536,0.195c-0.312,0.072-0.376,0.326-0.217,0.653
		c0.376,0.776,1.073,0.955,1.826,1.096c0.702,0.131,1.401,0.295,2.085,0.498c0.184,0.055,0.31,0.307,0.463,0.468
		c-0.205,0.047-0.411,0.138-0.615,0.132c-0.436-0.014-0.902-0.175-1.188,0.384c0.971,0.602,2.004,1.07,2.778,1.892
		c-0.023,0.063-0.046,0.126-0.069,0.189c-0.243-0.05-0.507-0.054-0.724-0.158c-2.03-0.969-4.182-1.028-6.314-0.643
		c-1.396,0.252-2.685,0.947-3.835,1.833c-0.228,0.176-0.497,0.298-0.748,0.444C304.414,59.794,304.361,59.723,304.309,59.652
		L304.309,59.652z M302.701,41.567c-0.149,0.304-0.286,0.518-0.363,0.751c-0.382,1.16-0.586,1.373-1.783,1.393
		c-1.134,0.019-2.271-0.094-3.407-0.104c-2.445-0.022-4.802,0.473-7.021,1.474c-2.179,0.983-4.217,0.874-6.213-0.43
		c-0.284-0.186-0.635-0.267-0.956-0.397c-0.025,0.049-0.05,0.099-0.076,0.149c0.066,0.088,0.118,0.195,0.202,0.264
		c1.221,1.017,2.618,1.599,4.214,1.648c2.206,0.067,4.355-0.245,6.421-1.043c0.391-0.151,0.604-0.099,0.851,0.295
		c0.756,1.206,1.678,2.27,2.983,2.929c0.877,0.442,1.793,0.573,2.776,0.473c0.892-0.09,1.821-0.426,2.672,0.187
		c0.348,0.251,0.698,0.501,1.051,0.744c0.353,0.244,0.713,0.48,1.069,0.719c0.035-0.042,0.069-0.083,0.104-0.124
		c-0.103-0.183-0.19-0.378-0.314-0.546c-0.89-1.212-1.776-2.428-2.691-3.621c-0.231-0.301-0.215-0.474,0.045-0.741
		C303.105,44.726,303.339,42.775,302.701,41.567L302.701,41.567z M276.817,76.585c-0.081-0.028-0.161-0.057-0.241-0.084
		c-0.279,0.629-0.585,1.25-0.834,1.891c-0.816,2.106-1.689,4.196-2.386,6.341c-0.419,1.293-0.611,2.671-0.796,4.026
		c-0.172,1.261-0.195,2.542-0.296,3.813c-0.015,0.19-0.097,0.376-0.147,0.563c-0.071,0-0.141-0.001-0.212-0.002
		c-0.255-1.672-0.511-3.344-0.767-5.016c-0.058-0.001-0.117-0.003-0.175-0.003c-0.043,0.217-0.099,0.433-0.124,0.652
		c-0.149,1.287-0.27,2.577-0.438,3.862c-0.294,2.249-0.629,4.493-0.918,6.743c-0.113,0.874-0.239,1.761-0.199,2.635
		c0.089,1.95,0.272,3.895,0.432,5.841c0.031,0.374,0.129,0.742,0.195,1.113c0.22-0.167,0.336-0.346,0.363-0.537
		c0.069-0.482,0.102-0.97,0.142-1.456c0.119-1.483,0.599-2.86,1.347-4.124c0.676-1.142,1.499-2.198,2.181-3.337
		c0.576-0.961,1.297-1.899,1.081-3.147c-0.09-0.517-0.218-1.037-0.227-1.558c-0.054-3.039-0.232-6.084,0.229-9.109
		c0.313-2.051,0.637-4.101,1.017-6.14C276.23,78.549,276.555,77.573,276.817,76.585L276.817,76.585z M318.169,86.732
		c0.364-0.194,0.613-0.335,0.868-0.46c0.247-0.122,0.501-0.228,0.753-0.341c-0.015,0.273-0.046,0.546-0.039,0.818
		c0.003,0.127,0.049,0.291,0.137,0.364c0.055,0.045,0.283-0.011,0.333-0.088c0.213-0.324,0.439-0.656,0.559-1.019
		c0.064-0.195,0-0.573-0.142-0.67c-1.011-0.695-2.051-1.349-3.102-1.984c-0.101-0.06-0.436,0.054-0.492,0.17
		c-0.294,0.604-0.54,1.232-0.786,1.858c-0.043,0.11-0.054,0.308,0.011,0.366c0.072,0.065,0.273,0.067,0.37,0.013
		c0.373-0.207,0.723-0.455,1.09-0.674c0.125-0.075,0.328-0.186,0.406-0.137c0.12,0.075,0.23,0.277,0.223,0.419
		C318.337,85.769,318.253,86.167,318.169,86.732L318.169,86.732z M287.523,96.403c-0.15,0.457-0.297,0.901-0.44,1.346
		c-0.017,0.055-0.014,0.118-0.008,0.176c0.1,0.941,0.138,1.896,0.331,2.818c0.095,0.456,0.385,0.967,0.746,1.254
		c1.008,0.804,2.09,1.519,3.16,2.243c1.139,0.77,2.569,0.177,2.908-1.185c0.006-0.024-0.041-0.061,0.018,0.019
		c-0.868,0.106-1.662,0.271-2.459,0.284c-1.132,0.021-1.16-0.055-1.165-1.189c-0.004-0.897-0.07-0.937-0.965-0.823
		c-0.292,0.037-0.717,0.161-0.681-0.423c0.053-0.865,0.084-1.732,0.127-2.66C287.372,98.702,287.851,97.224,287.523,96.403
		L287.523,96.403z M318.816,95.358c0.42-1.491,0.827-2.883,1.203-4.282c0.372-1.386,0.652-2.8,1.081-4.168
		c0.413-1.321,1.577-1.689,2.613-0.793c0.358,0.309,0.503,1.012,0.512,1.539c0.01,0.692-0.173,1.397-0.34,2.079
		c-0.382,1.565-1.296,2.845-2.384,3.973c-0.582,0.603-1.357,1.026-2.066,1.5C319.262,95.322,319.007,95.315,318.816,95.358
		L318.816,95.358z M310.728,90.013c1.18-0.198,1.865-0.911,2.428-1.721c0.558-0.802,0.971-1.704,1.518-2.516
		c0.526-0.781,0.895-1.612,1.086-2.523c0.233-1.113-0.016-1.662-0.912-1.996c-0.265-0.099-0.57-0.095-0.858-0.13
		c-1.314-0.159-2.132,0.809-2.312,1.564c-0.489,2.048-0.761,4.133-0.859,6.239C310.804,89.272,310.763,89.612,310.728,90.013
		L310.728,90.013z M302.184,107.215c0.12,0.209,0.228,0.426,0.371,0.618c0.023,0.031,0.244-0.017,0.291-0.085
		c0.186-0.27,0.431-0.544,0.49-0.848c0.205-1.071,0.329-2.156,0.507-3.231c0.473-2.858,1.663-5.352,3.705-7.442
		c1.645-1.684,3.708-2.697,5.801-3.62c1.43-0.63,2.984-0.977,4.472-1.482c0.4-0.136,0.784-0.354,1.133-0.596
		c0.381-0.265,0.286-0.773-0.176-0.885c-0.347-0.084-0.758-0.125-1.088-0.021c-1.254,0.395-2.529,0.763-3.718,1.311
		c-3.106,1.431-5.893,3.34-8.148,5.943c-1.169,1.35-2.147,2.83-2.738,4.54C302.441,103.285,302.233,105.212,302.184,107.215
		L302.184,107.215z M306.751,107.803c0,0.207,0.037,0.337-0.005,0.431c-0.457,0.995-0.869,2.018-1.41,2.966
		c-0.528,0.925-1.385,1.552-2.378,1.927c-1.026,0.387-2.076,0.711-3.125,1.033c-0.186,0.057-0.465,0.038-0.618-0.068
		c-0.867-0.595-1.589-1.33-2.026-2.309c-0.207-0.464,0.002-0.776,0.326-1.086c1.023-0.978,2.237-1.529,3.646-1.507
		c1.844,0.029,3.54-0.45,5.169-1.259C306.428,107.882,306.545,107.865,306.751,107.803L306.751,107.803z M292.859,107.419
		c0-0.197-0.003-0.394,0-0.59c0.016-0.886,0.526-1.505,1.408-1.559c2.376-0.148,4.515-0.946,6.493-2.239
		c0.158-0.104,0.385-0.104,0.579-0.153c-0.005,0.215,0.052,0.455-0.025,0.641c-0.479,1.157-0.927,2.332-1.499,3.442
		c-0.967,1.881-2.506,3.125-4.551,3.702c-0.723,0.204-1.715-0.379-2.046-1.255c-0.236-0.625-0.325-1.305-0.48-1.961
		C292.78,107.438,292.82,107.429,292.859,107.419L292.859,107.419z M235.763,11.32c-0.181,0.108-0.351,0.239-0.543,0.317
		c-2.316,0.941-4.339,2.322-6.22,3.961c-1.912,1.666-4.221,2.515-6.698,2.951c-1.269,0.223-2.536,0.461-3.793,0.74
		c-1.444,0.321-2.889,0.652-4.311,1.055c-1.448,0.41-2.869,0.914-4.303,1.372c-0.302,0.097-0.611,0.175-0.917,0.262
		c-0.08-0.106-0.16-0.213-0.24-0.318c0.189-0.088,0.391-0.156,0.565-0.268c2.276-1.464,4.657-2.711,7.292-3.395
		c1.542-0.4,3.112-0.689,4.648-1.105c0.95-0.257,1.86-0.658,2.886-1.029c-0.565-0.781-1.664-0.937-1.792-2.024
		c0.421,0.083,0.803,0.201,1.191,0.226c2.214,0.143,4.278-0.476,6.333-1.212c1.716-0.615,3.47-1.12,5.212-1.66
		c0.204-0.063,0.437-0.036,0.655-0.051C235.739,11.201,235.751,11.261,235.763,11.32L235.763,11.32z M246.912,15.135
		c-0.056,0.97-0.152,1.03-0.905,1.082c-1.414,0.1-2.795,0.424-4.013,1.146c-1.072,0.635-1.952,1.494-2.183,2.836
		c-0.134,0.78-0.465,1.54-0.512,2.32c-0.083,1.368-0.077,2.749,0.012,4.117c0.054,0.825,0.382,1.628,0.501,2.453
		c0.079,0.548,0.275,0.742,0.806,0.574c0.105-0.033,0.221-0.029,0.353-0.044c0.054,0.201,0.127,0.367,0.141,0.537
		c0.191,2.421,1.294,4.404,2.978,6.083c0.902,0.9,1.874,1.731,2.825,2.582c0.982,0.88,2.099,1.493,3.409,1.76
		c0.76,0.154,1.362-0.027,1.824-0.636c0.528-0.696,0.617-1.756,0.242-2.375c-0.704-1.16-1.86-1.841-2.854-2.69
		c-0.856-0.731-1.898-1.283-2.285-2.448c-0.1-0.303-0.191-0.608-0.286-0.913c0.329,0.012,0.658,0.024,0.986,0.036
		c0.02,0.001,0.04,0.01,0.058,0.007c0.209-0.035,0.416-0.072,0.625-0.109c-0.144-0.164-0.256-0.391-0.437-0.484
		c-1.21-0.621-2.197-1.481-2.962-2.607c-0.818-1.202-1.033-2.61-1.376-3.972c-0.079-0.316,0.005-0.672,0.015-1.01
		c0.308,0.111,0.622,0.207,0.921,0.338c0.286,0.125,0.59,0.228,0.582-0.22c-0.018-0.942-0.052-1.898-0.789-2.633
		c-0.329-0.328-0.21-0.523,0.198-0.578c0.426-0.057,0.861-0.049,1.286-0.108c1.349-0.188,2.65-0.1,3.869,0.58
		c0.197,0.11,0.429,0.155,0.7,0.249c0.009-0.728,0.191-1.379-0.24-1.999c-0.206-0.295-0.184-0.63,0.313-0.642
		c2.049-0.052,3.836,0.508,5.143,2.199c0.18,0.232,0.38,0.457,0.604,0.644c0.251,0.209,0.495,0.129,0.459-0.208
		c-0.106-0.99-0.169-1.988-0.764-2.864c-0.858-1.262-2.045-2.011-3.5-2.361c-0.489-0.118-0.998-0.163-1.501-0.216
		C249.76,15.416,248.363,15.281,246.912,15.135L246.912,15.135z M308.821,72.138c-0.229,0.301-0.485,0.586-0.682,0.907
		c-0.444,0.725-0.973,1.426-1.259,2.213c-0.445,1.225-0.152,2.331,1.107,2.812c1.203,0.46,2.401,0.928,3.601,1.393
		c1.712,0.665,3.535,0.802,5.321,1.094c1.503,0.246,3.038,0.307,4.541,0.554c2.058,0.338,4.117,0.625,6.205,0.509
		c0.554-0.031,1.158-0.128,1.634-0.388c1.169-0.64,1.658-1.768,1.705-3.043c0.042-1.132,0.002-2.276-0.117-3.402
		c-0.147-1.388-0.499-2.744-1.212-3.963c-0.758-1.297-1.725-2.382-2.963-3.294c-1.366-1.007-2.53-2.284-3.843-3.369
		c-0.65-0.538-0.911-1.205-1.054-1.964c-0.145-0.765,0.286-1.159,1.005-0.897c0.433,0.158,0.866,0.375,1.233,0.653
		c1.727,1.309,3.593,2.088,5.824,1.885c2.059-0.187,3.831,0.598,5.468,1.796c0.676,0.495,1.438,0.877,2.175,1.284
		c0.262,0.145,0.572,0.174,0.584-0.265c0.026-1.006-0.221-2.01-0.976-2.635c-1.653-1.37-3.364-2.686-5.157-3.866
		c-1.872-1.231-3.908-2.172-6.042-2.914c-1.331-0.463-2.565-0.393-3.876-0.013c-0.984,0.285-2.017,0.404-3.028,0.597
		c-0.019-0.068-0.039-0.135-0.058-0.203c0.126-0.072,0.245-0.162,0.38-0.213c0.727-0.274,1.454-0.553,2.19-0.802
		c0.734-0.247,1.249-0.745,1.574-1.413c0.105-0.215,0.1-0.635-0.042-0.791c-0.702-0.77-1.561-1.268-2.642-1.358
		c-1.124-0.093-2.156,0.255-3.212,0.53c-0.793,0.206-1.705,0.057-2.143-0.353c0.304-0.065,0.56-0.153,0.822-0.169
		c1.047-0.066,1.899-0.525,2.641-1.24c0.289-0.279,0.339-0.469-0.05-0.727c-1.272-0.842-2.533-1.701-3.777-2.582
		c-2.384-1.689-4.696-3.468-6.624-5.688c-0.681-0.784-1.316-1.606-2.007-2.381c-0.963-1.078-1.862-2.24-2.961-3.16
		c-1.596-1.335-3.28-2.555-5.31-3.257c-1.829-0.633-3.543-1.602-5.373-2.231c-1.551-0.534-3.178-0.939-4.804-1.14
		c-2.374-0.295-4.662,0.291-6.814,1.294c-1.447,0.675-2.57,1.726-3.006,3.337c-0.203,0.75-0.315,1.524-0.512,2.276
		c-0.057,0.217-0.226,0.482-0.415,0.572c-0.538,0.255-1.11,0.444-1.676,0.637c-1.361,0.463-2.634,1.107-3.711,2.054
		c-0.482,0.423-1.013,0.991-1.139,1.576c-0.221,1.031-0.029,2.085,0.786,2.915c0.116,0.118,0.103,0.363,0.15,0.549
		c-0.174-0.022-0.385,0.012-0.514-0.076c-0.503-0.339-0.986-0.709-1.464-1.083c-0.408-0.32-0.724-0.69-0.824-1.242
		c-0.057-0.317-0.279-0.604-0.484-1.02c-0.115,0.267-0.175,0.385-0.217,0.508c-0.689,2.015-0.771,4.071-0.203,6.107
		c0.628,2.252,1.513,4.41,2.749,6.411c0.537,0.869,1.057,1.75,1.613,2.671c-0.128,0.025-0.297,0.109-0.443,0.08
		c-2.008-0.402-3.953-0.933-5.306-2.656c-0.083-0.105-0.265-0.133-0.51-0.248c0.103,0.47,0.142,0.801,0.248,1.11
		c0.708,2.074,1.942,3.793,3.595,5.216c0.387,0.333,0.84,0.594,1.198,0.952c0.887,0.887,1.894,1.708,2.569,2.742
		c1.513,2.319,1.719,4.985,1.607,7.681c-0.007,0.184-0.15,0.362-0.285,0.667c-0.884-1.713-2.065-3.004-3.391-4.388
		c0,0.319-0.025,0.456,0.005,0.579c0.182,0.749,0.419,1.489,0.56,2.246c0.252,1.356,0.577,2.701,0.303,4.114
		c-0.365,1.88-0.737,3.734-1.876,5.346c-0.995,1.407-1.959,2.839-2.878,4.297c-0.56,0.889-1.197,1.798-1.466,2.788
		c-0.479,1.762-0.809,3.586-0.407,5.438c0.029,0.137-0.008,0.289-0.015,0.433c-0.064,0.022-0.129,0.044-0.194,0.067
		c-0.587-0.93-1.011-1.969-1.376-2.987c-0.379-1.059-0.472-2.219-0.718-3.475c-0.128,0.23-0.241,0.37-0.287,0.529
		c-0.137,0.465-0.219,0.949-0.374,1.408c-0.745,2.214-1.221,4.5-1.237,6.819c-0.016,2.204,0.077,4.446,0.477,6.606
		c0.546,2.949,1.49,5.815,2.828,8.527c0.087,0.176,0.049,0.414,0.071,0.646c-1.475-0.331-2.256-1.539-3.334-2.498
		c-0.041,0.229-0.077,0.32-0.069,0.407c0.223,2.36,1.562,4.01,3.461,5.239c0.411,0.265,1.088,0.349,1.567,0.225
		c0.759-0.196,1.249,0.025,1.72,0.548c1.015,1.127,2.277,1.911,3.67,2.461c1.194,0.471,1.56,0.879,1.608,2.16
		c0.035,0.924,0.363,1.706,1.154,2.198c0.87,0.541,1.31,1.304,1.496,2.285c0.035,0.183,0.351,0.451,0.528,0.444
		c0.48-0.017,0.967-0.124,1.431-0.265c0.476-0.145,0.656,0.021,0.576,0.465c-0.267,1.463,0.176,2.482,1.525,3.286
		c1.577,0.94,2.802,2.334,3.889,3.824c0.28,0.384,0.54,0.328,0.776-0.048c0.062-0.1,0.107-0.212,0.174-0.308
		c0.765-1.099,1.331-2.413,2.956-2.661c0.259,0.881,0.408,1.909,1.56,2.268c0.041-0.514,0.024-0.952,0.118-1.364
		c0.324-1.421,1.033-2.622,2.174-3.548c0.654-0.531,1.302-1.072,1.979-1.572c0.561-0.414,1.162-0.776,1.73-1.15
		c0.693,0.586,0.525,1.742,1.598,2.043c-0.198-1.167,0.254-1.934,1.149-2.514c0.907-0.588,1.814-1.183,2.659-1.853
		c0.489-0.389,0.95-0.879,1.257-1.418c0.815-1.432,0.595-3.001,0.427-4.546c-0.048-0.443-0.362-0.574-0.767-0.66
		c-0.466-0.099-0.965-0.211-1.358-0.461c-2.098-1.334-4.281-2.47-6.619-3.343c-1.099-0.41-2.092-1.11-3.113-1.714
		c-0.194-0.115-0.377-0.38-0.414-0.6c-0.181-1.058-0.397-2.122-0.434-3.19c-0.034-0.992-0.549-1.371-1.532-1.429
		c-0.85-0.05-1.782-0.08-2.185-0.961c-0.342-0.749-0.624-1.603-0.632-2.413c-0.025-2.259,0.085-4.521,0.183-6.78
		c0.087-1.997,0.198-3.973,0.755-5.936c0.741-2.615,2.379-4.493,4.47-6.017c1.694-1.235,3.499-2.322,5.293-3.41
		c2.73-1.656,5.695-2.39,8.895-2.066c0.63,0.064,0.734-0.065,0.795-0.69c0.118-1.186,0.268-2.37,1.033-3.364
		C307.32,73.04,307.902,72.403,308.821,72.138L308.821,72.138z M219.45,120.918c0.713-0.92,1.168-2.081,2.318-2.588
		c1.072-0.472,2.127-0.98,3.189-1.472c0.036,0.058,0.072,0.116,0.108,0.175c-0.054,0.116-0.084,0.254-0.166,0.344
		c-0.959,1.045-0.75,2.328-0.727,3.57c0.002,0.104,0.16,0.292,0.238,0.288c0.132-0.007,0.276-0.116,0.382-0.217
		c0.698-0.657,1.337-1.388,2.092-1.969c1.055-0.813,2.167-1.561,3.303-2.257c2.007-1.23,3.31-3.034,4.316-5.095
		c0.126-0.257,0.206-0.569,0.194-0.851c-0.024-0.55,0.269-0.779,0.708-1.021c1.786-0.98,3.452-2.115,4.545-3.911
		c0.108-0.179,0.261-0.329,0.351-0.634c-0.233,0.061-0.526,0.052-0.69,0.193c-1.229,1.062-2.72,1.478-4.255,1.797
		c-0.361,0.075-0.723,0.196-1.086,0.198c-0.255,0.001-0.68-0.114-0.727-0.268c-0.078-0.26,0.014-0.636,0.166-0.881
		c0.13-0.207,0.429-0.344,0.681-0.434c1.581-0.563,2.839-1.577,3.965-2.783c0.052-0.056,0.093-0.126,0.128-0.196
		c0.014-0.029-0.002-0.073-0.009-0.217c-0.512,0.096-1.018,0.167-1.511,0.288c-1.653,0.406-3.319,0.547-5.005,0.271
		c-0.153-0.025-0.393-0.225-0.399-0.352c-0.072-1.699-0.086-3.401-0.164-5.099c-0.054-1.17,0.335-2.243,0.664-3.323
		c0.118-0.389,0.452-0.807,0.804-1.015c2.029-1.195,4.033-2.458,6.159-3.455c2.333-1.093,4.767-1.982,7.198-2.847
		c1.527-0.543,3.13-0.871,4.694-1.31c0.49-0.138,0.787,0.025,0.835,0.516c0.088,0.907,0.132,1.818,0.195,2.728
		c0.008,0.124,0.019,0.247,0.036,0.45c0.186-0.103,0.324-0.139,0.404-0.228c1.423-1.586,2.785-3.205,3.2-5.397
		c0.045-0.235,0.306-0.509,0.537-0.617c1.118-0.521,2.289-0.934,3.384-1.496c1.138-0.584,2.24-1.281,2.76-2.543
		c0.221-0.537,0.497-1.153,0.425-1.689c-0.181-1.335,0.6-2.092,1.437-2.843c0.956-0.856,1.678-1.853,2.109-3.068
		c0.172-0.484,0.095-0.866-0.224-1.251c-2.194-2.653-4.691-4.958-7.668-6.717c-2.808-1.659-5.604-3.34-8.428-4.971
		c-1.249-0.721-2.536-1.382-3.841-1.996c-0.742-0.349-1.197-0.908-1.608-1.566c-1.331-2.125-2.813-4.131-4.899-5.583
		c-0.613-0.427-1.347-0.681-2.025-1.014c-2.12-1.043-4.231-2.104-6.361-3.126c-1.882-0.903-3.858-1.518-5.926-1.839
		c-1.304-0.203-2.598-0.461-3.898-0.683c-0.365-0.063-0.735-0.117-1.103-0.123c-2.733-0.045-5.469-0.168-8.199-0.08
		c-1.579,0.051-3.105-0.012-4.637-0.389c-1.246-0.307-2.226-1.028-3.141-1.853c-0.961-0.866-2.066-1.139-3.334-1.137
		c-1.907,0.003-3.747,0.405-5.613,0.692c-1.326,0.204-2.685,0.204-4.03,0.277c-0.491,0.027-0.984,0.006-1.476,0.001
		c-0.871-0.008-1.201,0.24-1.249,1.102c-0.051,0.9-0.139,1.83,0.033,2.699c0.12,0.599,0.64,1.126,1.015,1.662
		c0.126,0.179,0.358,0.283,0.66,0.51c-0.264,0.119-0.433,0.26-0.605,0.265c-2.087,0.054-4.179,0.112-6.157,0.873
		c-1.616,0.621-3.228,1.261-4.794,1.994c-2.558,1.199-5.039,2.575-7.772,3.354c-1.885,0.538-3.798,0.978-5.698,1.464
		c-2.307,0.59-4.436,1.545-6.363,2.97c-1.84,1.362-3.78,2.592-5.595,3.987c-1.989,1.529-3.897,3.164-5.814,4.783
		c-1.138,0.961-2.225,1.983-3.34,2.971c-0.124,0.11-0.286,0.178-0.491,0.303c-0.041-0.19-0.125-0.336-0.085-0.432
		c0.437-1.075,0.19-2.173,0.078-3.25c-0.231-2.22-0.526-4.433-0.807-6.647c-0.223-1.761-0.343-3.513-0.029-5.282
		c0.268-1.509,0.813-2.894,1.562-4.219c0.406-0.717,0.345-0.739-0.493-0.858c-1.342-0.191-2.682-0.389-3.958-0.915
		c-1.2-0.495-2.115-1.332-2.98-2.246c-0.127-0.134-0.138-0.377-0.203-0.569c0.194-0.024,0.393-0.087,0.582-0.066
		c2.086,0.231,4.198,0.32,6.197-0.325c1.34-0.433,2.63-1.162,3.79-1.976c1.815-1.273,3.486-2.749,5.247-4.102
		c0.839-0.645,1.745-1.206,2.622-1.802c0.13-0.089,0.292-0.141,0.397-0.251c0.165-0.174,0.293-0.381,0.436-0.575
		c-0.215-0.091-0.424-0.24-0.646-0.264c-0.95-0.102-1.905-0.242-2.855-0.222c-0.727,0.015-1.449,0.252-2.175,0.382
		c-0.178,0.033-0.362,0.033-0.543,0.049c-0.023-0.064-0.045-0.129-0.068-0.194c0.345-0.168,0.678-0.363,1.035-0.499
		c1.142-0.438,2.281-0.893,3.445-1.265c0.854-0.273,1.74-0.455,2.622-0.628c3.654-0.719,7.355-0.598,11.048-0.562
		c1.926,0.019,3.839-0.054,5.566-1c1.185-0.649,2.298-1.434,3.424-2.185c1.922-1.282,3.92-2.394,6.201-2.899
		c0.607-0.135,1.228-0.203,1.838-0.325c0.27-0.054,0.528-0.167,0.791-0.253c-0.007-0.079-0.014-0.157-0.021-0.237
		c-0.765-0.094-1.531-0.265-2.295-0.259c-0.761,0.005-1.52,0.19-2.341,0.209c0.245-0.207,0.46-0.48,0.74-0.609
		c1.378-0.634,2.618-1.635,4.212-1.71c1.254-0.06,2.515-0.122,3.767-0.064c1.826,0.084,3.615-0.067,5.315-0.729
		c2.064-0.805,4.061-1.75,5.994-2.861c2.922-1.68,5.746-3.596,9.042-4.512c1.291-0.359,2.645-0.49,4.109-0.75
		c-0.032-0.306-0.043-0.701-0.12-1.083c-0.43-2.123-0.736-4.258-0.364-6.418c0.129-0.751,0.432-1.473,0.784-2.225
		c0.452,0.749,0.703,1.574,1.49,1.997c0.711,0.382,1.277,1.055,2.194,1.096c-0.037-0.647-0.067-1.269-0.108-1.889
		c-0.083-1.234,0.341-2.311,1.02-3.307c0.09-0.132,0.257-0.211,0.389-0.314c0.099,0.132,0.264,0.253,0.287,0.397
		c0.285,1.804,1.609,2.541,3.15,2.931c0.899,0.227,1.864,0.196,2.8,0.268c0.137,0.01,0.28-0.054,0.478-0.095
		c-0.999-0.619-1.924-1.192-2.848-1.765c0.031-0.056,0.061-0.111,0.092-0.167c0.686,0.109,1.382,0.174,2.055,0.334
		c2.4,0.569,4.669-0.061,6.936-0.713c3.102-0.893,6.177-1.888,9.305-2.673c1.956-0.491,3.986-0.328,5.981,0
		c0.267,0.044,0.541,0.051,0.812,0.075c0.014-0.057,0.028-0.114,0.042-0.172c-0.203-0.132-0.407-0.265-0.612-0.397
		c0.004-0.064,0.007-0.129,0.011-0.193c0.189,0,0.416-0.069,0.562,0.011c0.994,0.542,2.084,0.573,3.159,0.553
		c1.63-0.032,3.263-0.122,4.888-0.262c1.624-0.14,3.215,0.035,4.805,0.317c2.176,0.385,4.365,0.71,6.528,1.158
		c1.761,0.364,3.491,0.87,5.236,1.309c0.177,0.045,0.36,0.061,0.541,0.091c0.033-0.068,0.066-0.136,0.099-0.204
		c-0.455-0.31-0.91-0.62-1.365-0.93c0.015-0.057,0.03-0.114,0.045-0.171c0.196,0.026,0.403,0.023,0.587,0.086
		c1.992,0.681,3.954,1.463,5.976,2.039c2.465,0.704,4.664,1.844,6.55,3.557c1.526,1.386,3.008,2.825,4.465,4.285
		c0.664,0.665,1.216,1.441,1.824,2.163c0.532,0.631,0.792,0.69,1.324,0.076c0.37-0.427,0.576-1.001,0.826-1.524
		c0.103-0.215,0.128-0.467,0.304-0.705c2.262,3.259,2.83,6.806,1.843,10.727c1.193-0.134,1.667-1.094,2.472-1.903
		c0.2,1.208,0.289,2.234-0.228,3.27c1.655-0.374,2.289-1.584,2.616-3.074c0.097,0.039,0.194,0.078,0.291,0.118
		c0.038,1.555,0.138,3.112-0.143,4.664c-0.284,1.57-0.9,3.01-1.873,4.279c0.592,0.389,1.475,0.372,1.98,0.05
		c0.12-0.077,0.306-0.051,0.463-0.072c-0.006,0.162,0.041,0.349-0.024,0.48c-0.413,0.835-0.922,1.595-1.759,2.078
		c-0.357,0.206-0.388,0.452,0.004,0.643c3.512,1.713,6.172,4.334,8.222,7.628c0.661,1.063,2.851,3.163,3.623,3.582
		c0.121-0.661-0.412-2.051-1.552-3.328c-0.816-0.914-1.856-1.628-2.763-2.554c0.674,0.293,1.368,0.547,2.017,0.887
		c1.402,0.734,2.67,1.631,3.601,2.961c0.756,1.082,1.269,2.24,1.347,3.561c0.049,0.832,0.656,1.186,1.231,1.585
		c1.451,1.005,2.912,1.997,4.345,3.027c0.182,0.131,0.28,0.448,0.319,0.694c0.065,0.412,0.223,0.658,0.643,0.808
		c0.847,0.302,1.684,0.641,2.498,1.024c1.076,0.507,1.702,1.393,2.039,2.529c0.211,0.711,0.951,0.822,1.512,1.051
		c3.111,1.267,6.17,2.603,8.865,4.675c1.662,1.278,2.87,2.883,3.868,4.685c0.095,0.171,0.189,0.348,0.315,0.496
		c0.279,0.326,0.232,0.638,0.015,0.966c-1.003,1.517-2.005,3.036-3.007,4.555c-0.32,0.484-0.396,0.968-0.358,1.585
		c0.118,1.875,0.068,3.754-0.349,5.612c-0.369,1.644-1.035,3.153-1.991,4.515c-0.909,1.295-1.828,2.608-2.921,3.74
		c-1.713,1.773-3.885,2.875-6.252,3.522c-0.774,0.211-1.096,0.729-1.468,1.305c-0.875,1.356-1.764,2.743-3.321,3.383
		c-0.861,0.354-1.827,0.455-2.751,0.642c-0.134,0.027-0.352-0.063-0.433-0.173c-0.053-0.072,0.063-0.278,0.118-0.418
		c0.399-1.034,0.84-2.054,1.189-3.104c0.159-0.479-0.146-0.695-0.665-0.592c-2.13,0.421-4.208,1.031-6.019,2.248
		c-1.194,0.802-2.287,1.769-3.35,2.744c-0.761,0.698-1.482,1.473-2.069,2.32c-1.042,1.501-1.637,3.209-1.922,5.016
		c-0.115,0.729-0.208,1.463-0.276,2.199c-0.027,0.289-0.062,0.706,0.099,0.85c0.169,0.151,0.6,0.13,0.86,0.032
		c0.471-0.178,0.89-0.486,1.346-0.71c0.97-0.477,1.433-0.161,1.521,0.936c0.096,1.192-0.345,2.182-1.038,3.092
		c-0.76,0.998-1.524,1.996-2.593,2.702c-0.12,0.08-0.285,0.239-0.275,0.346c0.112,1.216-0.356,2.41,0.023,3.658
		c0.41,1.349,0.42,2.756-0.01,4.147c-0.28,0.907-0.763,1.627-1.568,2.116c-1.169,0.71-2.349,1.404-3.53,2.095
		c-0.586,0.343-0.964,0.752-0.827,1.519c0.061,0.347-0.054,0.742-0.163,1.091c-0.04,0.13-0.297,0.276-0.45,0.27
		c-0.424-0.017-0.904-0.001-1.256-0.192c-1.297-0.705-2.328-0.161-3.32,0.607c-0.464,0.36-0.851,0.821-1.316,1.179
		c-0.821,0.632-0.892,1.532-0.908,2.436c-0.008,0.48,0.119,0.965,0.2,1.445c0.094,0.559-0.112,0.792-0.659,0.71
		c-0.614-0.093-1.237-0.154-1.834-0.311c-0.343-0.09-0.667-0.312-0.959-0.528c-0.525-0.388-0.832-0.379-1.12,0.225
		c-0.245,0.514-0.436,1.082-0.509,1.645c-0.107,0.826-0.077,1.67-0.129,2.505c-0.012,0.188-0.079,0.484-0.196,0.527
		c-0.145,0.054-0.416-0.053-0.551-0.178c-0.901-0.834-1.637-1.795-2.161-2.913c-0.751-1.599-1.775-2.932-3.436-3.709
		c-1.374-0.642-2.084-1.9-2.743-3.186c-0.115-0.223-0.332-0.393-0.503-0.587c-0.184,0.193-0.398,0.365-0.543,0.583
		c-0.189,0.285-0.323,0.606-0.481,0.912c-0.067,0.005-0.134,0.01-0.201,0.015c-0.218-0.604-0.488-1.195-0.641-1.815
		c-0.168-0.681-0.19-1.399-0.356-2.081c-0.076-0.31-0.281-0.689-0.542-0.838c-1.245-0.709-1.913-1.752-2.046-3.163
		c-0.044-0.469-0.103-0.937-0.151-1.405c-0.036-0.35-0.064-0.517-0.529-0.725c-1.065-0.476-1.987-1.27-2.974-1.923
		c-0.186-0.123-0.408-0.191-0.614-0.284c-0.086,0.239-0.209,0.473-0.249,0.72c-0.053,0.325-0.041,0.66-0.057,0.991
		c-0.31-0.124-0.624-0.236-0.927-0.374c-0.201-0.092-0.384-0.222-0.576-0.335c-0.043,0.038-0.086,0.076-0.128,0.115
		c0.192,0.274,0.365,0.565,0.579,0.821c1.35,1.612,2.747,3.187,4.055,4.833c1.862,2.344,3.024,5.029,3.584,7.965
		c0.255,1.335,0.425,2.688,0.625,4.034c0.029,0.193,0.042,0.4,0.001,0.588c-0.041,0.191-0.157,0.367-0.24,0.55
		c-0.141-0.133-0.303-0.251-0.42-0.402c-1.549-2.003-3.035-4.064-5.571-4.975c-0.44-0.159-0.609-0.1-0.807,0.307
		c-0.765,1.574-1.721,3.014-2.909,4.318c-1.449,1.591-3.15,2.887-4.772,4.275c-0.155,0.132-0.368,0.195-0.629,0.329
		c0.083-0.798,0.218-1.452,0.206-2.103c-0.037-1.978-0.407-3.86-1.763-5.421c-0.401-0.462-0.555-0.479-0.82,0.086
		c-1.034,2.203-2.149,4.375-3.046,6.633c-0.863,2.174-1.37,4.463-1.343,6.836c0.01,0.925-0.071,1.857,0.017,2.774
		c0.177,1.842,0.431,3.676,0.679,5.51c0.037,0.273,0.217,0.526,0.331,0.788c-0.033,0.048-0.066,0.096-0.099,0.143
		c-0.411-0.187-0.847-0.332-1.227-0.568c-1.804-1.118-3.104-2.716-4.029-4.583c-1.105-2.232-2.019-4.559-3.131-6.787
		c-0.984-1.972-2.085-3.933-3.822-5.335c-1.685-1.361-3.499-2.583-5.347-3.72c-2.66-1.636-5.374-3.191-8.119-4.682
		c-1.827-0.992-3.725-1.867-5.635-2.695c-2.912-1.262-5.858-2.447-8.799-3.643c-0.754-0.306-1.524-0.636-2.318-0.768
		c-1.246-0.209-2.517-0.274-3.78-0.373c-0.837-0.065-1.684-0.037-2.514-0.144c-0.446-0.057-0.866-0.311-1.298-0.477
		c-0.003-0.057-0.006-0.115-0.009-0.172c0.358-0.093,0.721-0.172,1.073-0.282c1.211-0.378,2.421-0.759,3.622-1.167
		c0.14-0.048,0.221-0.268,0.33-0.408c-0.172-0.049-0.36-0.171-0.513-0.136c-1.826,0.419-3.558-0.049-5.288-0.534
		c-0.28-0.079-0.554-0.182-0.821-0.271c1.563-1.387,3.16-2.741,4.677-4.181c0.748-0.71,1.382-1.551,2.003-2.381
		c0.987-1.319,1.875-2.715,2.895-4.008c0.515-0.653,1.214-1.165,1.854-1.713c0.418-0.358,0.904-0.262,1.397-0.132
		c1.248,0.329,1.909,1.391,2.804,2.167c0.647,0.561,0.571,1.132,0.272,1.817c-0.652,1.495-0.739,3.05-0.38,4.633
		c0.096,0.42,0.206,0.836,0.319,1.251c0.163,0.597,0.248,0.613,0.802,0.318c0.666-0.355,1.351-0.675,2.028-1.01
		c0.057,0.044,0.114,0.088,0.171,0.132c-0.231,0.645-0.537,1.274-0.673,1.939c-0.141,0.689-0.118,1.413-0.167,2.122
		C219.344,120.855,219.397,120.887,219.45,120.918z"/>
	<path class="st1" d="M26.013,107.079c0.37-0.51,3.604-2.398,5.372-5.069c4.356-6.58,11.908-33.17,15.466-38.609
		c1.999-3.057,5.194-6.141,8.329-8.08c0.916-0.567,2.522-1.187,3.232-2.191c-5.583-0.254-17.116-0.361-21.667,1.097
		c-2.799,0.897-5.237,2.252-7.114,4.067c-1.101,1.064-4.097,4.291-4.29,6.532c1.203-1.537,3.86-3.597,6-4.83
		c2.492-1.436,4.976-2.267,8.276-2.568c-1.9,1.445-8.944,3.631-14.062,10.553c-8.168,11.049-10.896,32.622-19.083,41.89
		c-2.599,2.942-6.087,4.541-6.471,5.549l43.218,0.015c6.289,0,8.96,0.359,14.871-3.775c3.427-2.396,7.113-7.985,7.293-11.111
		c-3.091,3.928-6.234,6.575-12.33,6.576L26.013,107.079L26.013,107.079z M83.584,95.732c3.248-3.097,4.227-3.187,6.188-8.451
		c7.389-19.845,5.639-22.239,22.172-22.109c-0.968,1.586-2.474,2.109-3.838,4.072c-2.248,3.234-4.762,11.496-6.35,15.64
		c-1.331,3.472-2.224,7.08-5.519,9.19C93.097,96.085,88.082,96.188,83.584,95.732L83.584,95.732z M91.894,62.217
		c-1.306,0.232-5.48,2.811-6.5,3.653c-4.092,3.375-1.787,1.465-3.972,3.89c-3.9,4.326-5.294,9.864-7.575,16.031
		c-1.866,5.045-5.62,11.703-0.571,15.36c2.935,2.125,15.236,1.287,19.769,1.287c7.969,0,12.109,0.748,17.689-3.367
		c1.462-1.078,1.489-1.145,2.599-2.641c3.961-5.342,8.941-27.388,14.233-32.982c3.204-3.387,3.974-3.209,5.631-4.845
		c-12.252,0.478-25.839,0.148-38.185,0.148c-6.232-0.001-13.314,3.705-14.346,9.088C81.525,67.451,86.981,61.486,91.894,62.217
		L91.894,62.217z M144.418,102.427l-7.198-21.255c-2.58,4.962-3.513,12.319-6.987,16.085c-4.04,4.379-10.273,6.141-18.113,5.063
		c1.296-1.231,2.102-1.064,4.715-3.703c3.76-3.797,4.276-6.67,6.071-11.285c0.835-2.147,1.589-4.263,2.402-6.473
		c1.847-5.017,2.839-7.71,5.952-11.433c2.307-2.759,6.816-6.127,10.129-7.232c-2.017-0.23-4.692,0.935-6.315,1.895
		c-2.249,1.331-3.557,3.144-4.845,3.737c0.516-3.076,4.365-6.151,6.999-7.506c4.386-2.257,8.296-1.393,13.591-1.609l6.145,23.722
		l0.991-2.019c1.292-3.671,4.657-13.332,6.171-15.465c4.018-5.657,9.485-6.543,18.442-6.158c-1.153,1.627-6.022,2.993-9.176,11.159
		c-1.892,4.9-3.579,9.741-5.465,14.85C162.654,99.072,161.828,102.539,144.418,102.427L144.418,102.427z M220.887,65.154
		c4.051,0.001,2.744-0.617,4.894-2.805c0.757-0.771,1.043-1.042,2.124-1.808c1.596-1.129,1.524-0.687,2.264-1.798l-33.54,0.011
		c-4.398,0-6.738,0.586-9.87,2.6c-3.318,2.133-3.345,2.977-5.371,6.458c0.76-0.14,6.934-6.66,11.184-5.569
		c-1.946,1.051-3.526,1.65-5.295,2.901c-0.961,0.68-1.285,1.1-2.152,1.777c-2.758,2.154-7.472,8.123-7.48,12.166
		c-0.011,5.929,3.957,5.926,9.851,7.118c4.05,0.819,11.488,1.666,11.025,4.902c-0.754,5.269-8.48,4.718-11.726,4.718
		c-20.189,0.001-14.144-1.383-19.385,3.538c-1.142,1.072-2.832,1.826-3.895,3.014c10.198,0.437,25.947,0.06,36.72,0.06
		c6.143,0,14.067-2.47,15.711-9.134c-1.524,0.694-1.402,1.829-4.946,3.752c-1.816,0.986-3.944,1.939-6.355,1.892
		c3.993-1.25,7.079-4.136,9.391-6.387c1.793-1.747,5.713-6.403,5.633-10.198c-0.151-7.192-14.366-6.336-20.803-11.038
		c0.16-5.472,5.024-6.162,10.547-6.166L220.887,65.154L220.887,65.154z M39.657,102.321c2.919-2.633,5.458-2.998,8.449-8.851
		c3.718-7.277,4.964-17.303,10.694-24.052c1.221-1.439,3.198-3.154,4.671-4.167c2.011-1.383,3.15-1.991,5.486-3.047
		c-4.568-0.668-10.069,5.001-11.208,5.65c1.97-4.462,4.162-6.583,8.859-8.276c4.638-1.672,13.441,0.01,16.107-0.975
		c-0.272,0.812-1.972,1.489-2.763,2.152c-3.302,2.767-5.121,5.24-6.757,9.637c-2.002,5.38-4.016,10.736-5.903,16.049
		c-2.826,7.957-5.286,15.691-16.519,16.003C47.789,102.525,42.465,102.685,39.657,102.321z"/>
</g>
</svg>
