<?xml version="1.0" encoding="utf-8"?><!DOCTYPE svg PUBLIC "-//W3C//DTD SVG 1.1//EN" "http://www.w3.org/Graphics/SVG/1.1/DTD/svg11.dtd"><svg xmlns="http://www.w3.org/2000/svg" xmlns:xlink="http://www.w3.org/1999/xlink"><symbol viewBox="0 0 512 512" id="fb" xmlns="http://www.w3.org/2000/svg"><path d="M223.22 71.227c16.066-15.298 38.918-20.465 60.475-21.109 22.799-.205 45.589-.081 68.388-.072.09 24.051.098 48.111-.009 72.161-14.734-.026-29.478.036-44.212-.026-9.343-.582-18.937 6.5-20.635 15.762-.224 16.093-.081 32.195-.072 48.289 21.61.089 43.22-.027 64.829.054-1.582 23.281-4.47 46.456-7.858 69.541-19.088.179-38.187-.018-57.274.099-.17 68.665.089 137.33-.134 205.995-28.352.116-56.721-.054-85.072.08-.537-68.674.044-137.383-.295-206.066-13.832-.144-27.672.099-41.503-.116.053-23.085.018-46.169.026-69.246 13.822-.169 27.654.036 41.477-.098.42-22.442-.421-44.91.438-67.333 1.386-17.758 8.154-35.649 21.431-47.915z"/></symbol><symbol viewBox="0 0 510 510" id="in" xmlns="http://www.w3.org/2000/svg"><path d="M459 0H51C22.95 0 0 22.95 0 51v408c0 28.05 22.95 51 51 51h408c28.05 0 51-22.95 51-51V51c0-28.05-22.95-51-51-51zM255 153c56.1 0 102 45.9 102 102s-45.9 102-102 102-102-45.9-102-102 45.9-102 102-102zM63.75 459C56.1 459 51 453.9 51 446.25V229.5h53.55C102 237.15 102 247.35 102 255c0 84.15 68.85 153 153 153s153-68.85 153-153c0-7.65 0-17.85-2.55-25.5H459v216.75c0 7.65-5.1 12.75-12.75 12.75H63.75zM459 114.75c0 7.65-5.1 12.75-12.75 12.75h-51c-7.65 0-12.75-5.1-12.75-12.75v-51c0-7.65 5.1-12.75 12.75-12.75h51C453.9 51 459 56.1 459 63.75v51z"/></symbol><symbol viewBox="0 0 65.382 62.465" id="l" xmlns="http://www.w3.org/2000/svg"><path class="cst0" d="M26.012 54.101c.37-.51 3.604-2.398 5.372-5.069 4.356-6.58 11.908-33.17 15.466-38.609 1.999-3.057 5.194-6.141 8.329-8.08.916-.567 2.522-1.187 3.232-2.191-5.583-.254-17.116-.361-21.667 1.097-2.799.897-5.237 2.252-7.114 4.067-1.101 1.064-4.097 4.291-4.29 6.532 1.203-1.537 3.86-3.597 6-4.83 2.492-1.436 4.976-2.267 8.276-2.568-1.9 1.445-8.944 3.631-14.062 10.553-8.168 11.049-10.896 32.622-19.083 41.89C3.872 59.835.384 61.434 0 62.442l43.218.015c6.289 0 8.96.359 14.871-3.775 3.427-2.396 7.113-7.985 7.293-11.111-3.091 3.928-6.234 6.575-12.33 6.576l-27.04-.046z"/></symbol><symbol id="logo" viewBox="0 0 340.303 156.613" xmlns="http://www.w3.org/2000/svg"><style>.dst0,.dst1{fill-rule:evenodd;clip-rule:evenodd;fill:url(#dSVGID_1_)}.dst1{fill:#fdc100}</style><linearGradient id="dSVGID_1_" gradientUnits="userSpaceOnUse" x1="233.931" y1="72.937" x2="168.713" y2="127.661"><stop offset="0" stop-color="#ffed00"/><stop offset="1" stop-color="#c90c0f"/></linearGradient><path class="dst0" d="M233.797 18.168c-1.045-.253-3.031 1.008-3.646 2.158-.364.68-.072 2.925.53 3.521.647-2.13 1.176-4.288 3.116-5.679zm53.759 110.494c.134-1.577 1.345-2.924 2.788-3.193.133-.025.298-.052.406.003.177.092.319.252.476.383-.132.142-.24.333-.402.415-.393.199-.813.343-1.219.517-.737.315-1.152.898-1.362 1.652a.667.667 0 0 1-.161.304c-.099.093-.238.145-.36.214l-.166-.295zm-1.917-55.436c.471-.675.889-1.397 1.427-2.016.807-.927 1.69-1.788 2.557-2.661.175-.176.418-.288.639-.413.288-.163.686-.415.864-.031.115.248-.02.763-.229.977-.358.368-.901.547-1.296.888-.943.814-1.844 1.676-2.764 2.517-.328.3-.658.596-.988.894l-.21-.155zm2.08 6.812c.189.688-.229 1.075-.58 1.433-.995 1.015-1.894 2.091-2.345 3.461-.266.808-.441 1.645-.682 2.462a5.485 5.485 0 0 1-.545 1.26c-.068-1.81.272-3.544.97-5.194.633-1.497 1.709-2.617 3.182-3.422zm-6.83 25.981c.128.215.305.415.375.648.565 1.883 1.305 3.7 2.313 5.379.547.91 1.268 1.746 2.045 2.474.401.376 1.093.443 1.655.648.211.077.423.15.659.233-.745.903-2.417 1.019-3.199.204-.855-.891-1.645-1.844-2.089-3.035-.415-1.114-.921-2.196-1.285-3.325-.327-1.012-.515-2.07-.764-3.107l.29-.119zm3.479-26.626l.168.128c.142-.137.297-.262.422-.412.733-.891 1.392-1.854 2.202-2.668a91.844 91.844 0 0 1 4.34-4.052c.987-.872 1.969-1.754 3.415-1.903.717-.074 1.701-1.958 1.602-2.742-.039-.313-.211-.349-.454-.209-.676.391-1.394.723-2.013 1.189-1.172.881-2.349 1.774-3.412 2.78-1.953 1.849-3.616 3.96-5.192 6.134-.402.554-.721 1.168-1.078 1.755zm-10.969 37.213c-1.216-2.243.465-8.508 2.689-10.17 0 .267-.005.468.001.669.037 1.292-.092 2.617.159 3.866.281 1.4.931 2.722 1.37 4.094.218.683.373 1.394.469 2.105.175 1.298.259 2.607.435 3.905.05.366.285.706.439 1.056.097.22.199.436.242.681-1.902-1.063-2.414-2.93-2.846-4.864-.488 1.065-.239 2.075.194 3.087-.524.183-.681-.168-.855-.507-.773-1.504-1.445-3.043-1.656-4.744-.011-.092-.055-.18-.14-.449-.193.486-.325.822-.501 1.271zm30.91-56.954c.508-.466.962-1.016 1.535-1.38.935-.594 1.954-1.053 2.922-1.597.337-.189.628-.461.94-.694l-.09-.188c-.274.032-.547.067-.821.096-1.819.192-3.652.199-5.445.678-2.231.596-4.151 1.674-5.788 3.288-.267.263-.607.451-1.024.579.042-.113.06-.245.131-.335 1.09-1.405 2.388-2.574 3.84-3.612 1.653-1.182 3.577-1.757 5.365-2.632a19.69 19.69 0 0 0 2.001-1.122c.797-.513.812-1.167.098-1.795a1.491 1.491 0 0 1-.205-.208c-.032-.041-.032-.107-.09-.321 2.107.296 3.824 1.288 5.558 2.239l-.021.23c-.219 0-.439-.018-.655.004-.514.05-1.036.079-1.536.195-.312.072-.376.326-.217.653.376.776 1.073.955 1.826 1.096.702.131 1.401.295 2.085.498.184.055.31.307.463.468-.205.047-.411.138-.615.132-.436-.014-.902-.175-1.188.384.971.602 2.004 1.07 2.778 1.892l-.069.189c-.243-.05-.507-.054-.724-.158-2.03-.969-4.182-1.028-6.314-.643-1.396.252-2.685.947-3.835 1.833-.228.176-.497.298-.748.444l-.157-.213zm-1.608-18.085c-.149.304-.286.518-.363.751-.382 1.16-.586 1.373-1.783 1.393-1.134.019-2.271-.094-3.407-.104a16.572 16.572 0 0 0-7.021 1.474c-2.179.983-4.217.874-6.213-.43-.284-.186-.635-.267-.956-.397l-.076.149c.066.088.118.195.202.264 1.221 1.017 2.618 1.599 4.214 1.648 2.206.067 4.355-.245 6.421-1.043.391-.151.604-.099.851.295.756 1.206 1.678 2.27 2.983 2.929.877.442 1.793.573 2.776.473.892-.09 1.821-.426 2.672.187.348.251.698.501 1.051.744.353.244.713.48 1.069.719l.104-.124c-.103-.183-.19-.378-.314-.546-.89-1.212-1.776-2.428-2.691-3.621-.231-.301-.215-.474.045-.741.84-.861 1.074-2.812.436-4.02zm-25.884 35.018l-.241-.084c-.279.629-.585 1.25-.834 1.891-.816 2.106-1.689 4.196-2.386 6.341-.419 1.293-.611 2.671-.796 4.026-.172 1.261-.195 2.542-.296 3.813-.015.19-.097.376-.147.563l-.212-.002-.767-5.016-.175-.003c-.043.217-.099.433-.124.652-.149 1.287-.27 2.577-.438 3.862-.294 2.249-.629 4.493-.918 6.743-.113.874-.239 1.761-.199 2.635.089 1.95.272 3.895.432 5.841.031.374.129.742.195 1.113.22-.167.336-.346.363-.537.069-.482.102-.97.142-1.456.119-1.483.599-2.86 1.347-4.124.676-1.142 1.499-2.198 2.181-3.337.576-.961 1.297-1.899 1.081-3.147-.09-.517-.218-1.037-.227-1.558-.054-3.039-.232-6.084.229-9.109.313-2.051.637-4.101 1.017-6.14.186-1.003.511-1.979.773-2.967zm41.352 10.147c.364-.194.613-.335.868-.46.247-.122.501-.228.753-.341-.015.273-.046.546-.039.818.003.127.049.291.137.364.055.045.283-.011.333-.088.213-.324.439-.656.559-1.019.064-.195 0-.573-.142-.67a62.7 62.7 0 0 0-3.102-1.984c-.101-.06-.436.054-.492.17-.294.604-.54 1.232-.786 1.858-.043.11-.054.308.011.366.072.065.273.067.37.013.373-.207.723-.455 1.09-.674.125-.075.328-.186.406-.137a.55.55 0 0 1 .223.419c-.021.402-.105.8-.189 1.365zm-30.646 9.671c-.15.457-.297.901-.44 1.346a.452.452 0 0 0-.008.176c.1.941.138 1.896.331 2.818.095.456.385.967.746 1.254 1.008.804 2.09 1.519 3.16 2.243 1.139.77 2.569.177 2.908-1.185.006-.024-.041-.061.018.019-.868.106-1.662.271-2.459.284-1.132.021-1.16-.055-1.165-1.189-.004-.897-.07-.937-.965-.823-.292.037-.717.161-.681-.423.053-.865.084-1.732.127-2.66-1.723.439-1.244-1.039-1.572-1.86zm31.293-1.045c.42-1.491.827-2.883 1.203-4.282.372-1.386.652-2.8 1.081-4.168.413-1.321 1.577-1.689 2.613-.793.358.309.503 1.012.512 1.539.01.692-.173 1.397-.34 2.079-.382 1.565-1.296 2.845-2.384 3.973-.582.603-1.357 1.026-2.066 1.5-.173.116-.428.109-.619.152zm-8.088-5.345c1.18-.198 1.865-.911 2.428-1.721.558-.802.971-1.704 1.518-2.516a7.07 7.07 0 0 0 1.086-2.523c.233-1.113-.016-1.662-.912-1.996-.265-.099-.57-.095-.858-.13-1.314-.159-2.132.809-2.312 1.564a33.523 33.523 0 0 0-.859 6.239c-.015.342-.056.682-.091 1.083zm-8.544 17.202c.12.209.228.426.371.618.023.031.244-.017.291-.085.186-.27.431-.544.49-.848.205-1.071.329-2.156.507-3.231.473-2.858 1.663-5.352 3.705-7.442 1.645-1.684 3.708-2.697 5.801-3.62 1.43-.63 2.984-.977 4.472-1.482a4.67 4.67 0 0 0 1.133-.596c.381-.265.286-.773-.176-.885-.347-.084-.758-.125-1.088-.021-1.254.395-2.529.763-3.718 1.311-3.106 1.431-5.893 3.34-8.148 5.943-1.169 1.35-2.147 2.83-2.738 4.54-.645 1.868-.853 3.795-.902 5.798zm4.567.588c0 .207.037.337-.005.431-.457.995-.869 2.018-1.41 2.966-.528.925-1.385 1.552-2.378 1.927-1.026.387-2.076.711-3.125 1.033-.186.057-.465.038-.618-.068-.867-.595-1.589-1.33-2.026-2.309-.207-.464.002-.776.326-1.086 1.023-.978 2.237-1.529 3.646-1.507 1.844.029 3.54-.45 5.169-1.259.098-.049.215-.066.421-.128zm-13.892-.384c0-.197-.003-.394 0-.59.016-.886.526-1.505 1.408-1.559 2.376-.148 4.515-.946 6.493-2.239.158-.104.385-.104.579-.153-.005.215.052.455-.025.641-.479 1.157-.927 2.332-1.499 3.442-.967 1.881-2.506 3.125-4.551 3.702-.723.204-1.715-.379-2.046-1.255-.236-.625-.325-1.305-.48-1.961l.121-.028zM235.763 11.32c-.181.108-.351.239-.543.317-2.316.941-4.339 2.322-6.22 3.961-1.912 1.666-4.221 2.515-6.698 2.951a86.948 86.948 0 0 0-3.793.74c-1.444.321-2.889.652-4.311 1.055-1.448.41-2.869.914-4.303 1.372-.302.097-.611.175-.917.262l-.24-.318c.189-.088.391-.156.565-.268 2.276-1.464 4.657-2.711 7.292-3.395 1.542-.4 3.112-.689 4.648-1.105.95-.257 1.86-.658 2.886-1.029-.565-.781-1.664-.937-1.792-2.024.421.083.803.201 1.191.226 2.214.143 4.278-.476 6.333-1.212 1.716-.615 3.47-1.12 5.212-1.66.204-.063.437-.036.655-.051l.035.178zm11.149 3.815c-.056.97-.152 1.03-.905 1.082-1.414.1-2.795.424-4.013 1.146-1.072.635-1.952 1.494-2.183 2.836-.134.78-.465 1.54-.512 2.32a32.88 32.88 0 0 0 .012 4.117c.054.825.382 1.628.501 2.453.079.548.275.742.806.574.105-.033.221-.029.353-.044.054.201.127.367.141.537.191 2.421 1.294 4.404 2.978 6.083.902.9 1.874 1.731 2.825 2.582.982.88 2.099 1.493 3.409 1.76.76.154 1.362-.027 1.824-.636.528-.696.617-1.756.242-2.375-.704-1.16-1.86-1.841-2.854-2.69-.856-.731-1.898-1.283-2.285-2.448-.1-.303-.191-.608-.286-.913l.986.036c.02.001.04.01.058.007.209-.035.416-.072.625-.109-.144-.164-.256-.391-.437-.484a7.837 7.837 0 0 1-2.962-2.607c-.818-1.202-1.033-2.61-1.376-3.972-.079-.316.005-.672.015-1.01.308.111.622.207.921.338.286.125.59.228.582-.22-.018-.942-.052-1.898-.789-2.633-.329-.328-.21-.523.198-.578.426-.057.861-.049 1.286-.108 1.349-.188 2.65-.1 3.869.58.197.11.429.155.7.249.009-.728.191-1.379-.24-1.999-.206-.295-.184-.63.313-.642 2.049-.052 3.836.508 5.143 2.199.18.232.38.457.604.644.251.209.495.129.459-.208-.106-.99-.169-1.988-.764-2.864-.858-1.262-2.045-2.011-3.5-2.361-.489-.118-.998-.163-1.501-.216-1.395-.145-2.792-.28-4.243-.426zm61.909 57.003c-.229.301-.485.586-.682.907-.444.725-.973 1.426-1.259 2.213-.445 1.225-.152 2.331 1.107 2.812 1.203.46 2.401.928 3.601 1.393 1.712.665 3.535.802 5.321 1.094 1.503.246 3.038.307 4.541.554 2.058.338 4.117.625 6.205.509.554-.031 1.158-.128 1.634-.388 1.169-.64 1.658-1.768 1.705-3.043a24.004 24.004 0 0 0-.117-3.402c-.147-1.388-.499-2.744-1.212-3.963a10.766 10.766 0 0 0-2.963-3.294c-1.366-1.007-2.53-2.284-3.843-3.369-.65-.538-.911-1.205-1.054-1.964-.145-.765.286-1.159 1.005-.897.433.158.866.375 1.233.653 1.727 1.309 3.593 2.088 5.824 1.885 2.059-.187 3.831.598 5.468 1.796.676.495 1.438.877 2.175 1.284.262.145.572.174.584-.265.026-1.006-.221-2.01-.976-2.635-1.653-1.37-3.364-2.686-5.157-3.866-1.872-1.231-3.908-2.172-6.042-2.914-1.331-.463-2.565-.393-3.876-.013-.984.285-2.017.404-3.028.597l-.058-.203c.126-.072.245-.162.38-.213.727-.274 1.454-.553 2.19-.802.734-.247 1.249-.745 1.574-1.413.105-.215.1-.635-.042-.791-.702-.77-1.561-1.268-2.642-1.358-1.124-.093-2.156.255-3.212.53-.793.206-1.705.057-2.143-.353.304-.065.56-.153.822-.169 1.047-.066 1.899-.525 2.641-1.24.289-.279.339-.469-.05-.727a145.38 145.38 0 0 1-3.777-2.582c-2.384-1.689-4.696-3.468-6.624-5.688-.681-.784-1.316-1.606-2.007-2.381-.963-1.078-1.862-2.24-2.961-3.16-1.596-1.335-3.28-2.555-5.31-3.257-1.829-.633-3.543-1.602-5.373-2.231-1.551-.534-3.178-.939-4.804-1.14-2.374-.295-4.662.291-6.814 1.294-1.447.675-2.57 1.726-3.006 3.337-.203.75-.315 1.524-.512 2.276-.057.217-.226.482-.415.572-.538.255-1.11.444-1.676.637-1.361.463-2.634 1.107-3.711 2.054-.482.423-1.013.991-1.139 1.576-.221 1.031-.029 2.085.786 2.915.116.118.103.363.15.549-.174-.022-.385.012-.514-.076a25.712 25.712 0 0 1-1.464-1.083c-.408-.32-.724-.69-.824-1.242-.057-.317-.279-.604-.484-1.02-.115.267-.175.385-.217.508-.689 2.015-.771 4.071-.203 6.107.628 2.252 1.513 4.41 2.749 6.411.537.869 1.057 1.75 1.613 2.671-.128.025-.297.109-.443.08-2.008-.402-3.953-.933-5.306-2.656-.083-.105-.265-.133-.51-.248.103.47.142.801.248 1.11.708 2.074 1.942 3.793 3.595 5.216.387.333.84.594 1.198.952.887.887 1.894 1.708 2.569 2.742 1.513 2.319 1.719 4.985 1.607 7.681-.007.184-.15.362-.285.667-.884-1.713-2.065-3.004-3.391-4.388 0 .319-.025.456.005.579.182.749.419 1.489.56 2.246.252 1.356.577 2.701.303 4.114-.365 1.88-.737 3.734-1.876 5.346a97.429 97.429 0 0 0-2.878 4.297c-.56.889-1.197 1.798-1.466 2.788-.479 1.762-.809 3.586-.407 5.438.029.137-.008.289-.015.433l-.194.067c-.587-.93-1.011-1.969-1.376-2.987-.379-1.059-.472-2.219-.718-3.475-.128.23-.241.37-.287.529-.137.465-.219.949-.374 1.408-.745 2.214-1.221 4.5-1.237 6.819-.016 2.204.077 4.446.477 6.606a32.71 32.71 0 0 0 2.828 8.527c.087.176.049.414.071.646-1.475-.331-2.256-1.539-3.334-2.498-.041.229-.077.32-.069.407.223 2.36 1.562 4.01 3.461 5.239.411.265 1.088.349 1.567.225.759-.196 1.249.025 1.72.548 1.015 1.127 2.277 1.911 3.67 2.461 1.194.471 1.56.879 1.608 2.16.035.924.363 1.706 1.154 2.198.87.541 1.31 1.304 1.496 2.285.035.183.351.451.528.444.48-.017.967-.124 1.431-.265.476-.145.656.021.576.465-.267 1.463.176 2.482 1.525 3.286 1.577.94 2.802 2.334 3.889 3.824.28.384.54.328.776-.048.062-.1.107-.212.174-.308.765-1.099 1.331-2.413 2.956-2.661.259.881.408 1.909 1.56 2.268.041-.514.024-.952.118-1.364.324-1.421 1.033-2.622 2.174-3.548.654-.531 1.302-1.072 1.979-1.572.561-.414 1.162-.776 1.73-1.15.693.586.525 1.742 1.598 2.043-.198-1.167.254-1.934 1.149-2.514.907-.588 1.814-1.183 2.659-1.853.489-.389.95-.879 1.257-1.418.815-1.432.595-3.001.427-4.546-.048-.443-.362-.574-.767-.66-.466-.099-.965-.211-1.358-.461-2.098-1.334-4.281-2.47-6.619-3.343-1.099-.41-2.092-1.11-3.113-1.714a.973.973 0 0 1-.414-.6c-.181-1.058-.397-2.122-.434-3.19-.034-.992-.549-1.371-1.532-1.429-.85-.05-1.782-.08-2.185-.961-.342-.749-.624-1.603-.632-2.413-.025-2.259.085-4.521.183-6.78.087-1.997.198-3.973.755-5.936.741-2.615 2.379-4.493 4.47-6.017 1.694-1.235 3.499-2.322 5.293-3.41 2.73-1.656 5.695-2.39 8.895-2.066.63.064.734-.065.795-.69.118-1.186.268-2.37 1.033-3.364.535-.701 1.117-1.338 2.036-1.603zm-89.371 48.78c.713-.92 1.168-2.081 2.318-2.588 1.072-.472 2.127-.98 3.189-1.472l.108.175c-.054.116-.084.254-.166.344-.959 1.045-.75 2.328-.727 3.57.002.104.16.292.238.288.132-.007.276-.116.382-.217.698-.657 1.337-1.388 2.092-1.969a37.515 37.515 0 0 1 3.303-2.257c2.007-1.23 3.31-3.034 4.316-5.095.126-.257.206-.569.194-.851-.024-.55.269-.779.708-1.021 1.786-.98 3.452-2.115 4.545-3.911.108-.179.261-.329.351-.634-.233.061-.526.052-.69.193-1.229 1.062-2.72 1.478-4.255 1.797-.361.075-.723.196-1.086.198-.255.001-.68-.114-.727-.268-.078-.26.014-.636.166-.881.13-.207.429-.344.681-.434 1.581-.563 2.839-1.577 3.965-2.783a.839.839 0 0 0 .128-.196c.014-.029-.002-.073-.009-.217-.512.096-1.018.167-1.511.288-1.653.406-3.319.547-5.005.271-.153-.025-.393-.225-.399-.352-.072-1.699-.086-3.401-.164-5.099-.054-1.17.335-2.243.664-3.323.118-.389.452-.807.804-1.015 2.029-1.195 4.033-2.458 6.159-3.455 2.333-1.093 4.767-1.982 7.198-2.847 1.527-.543 3.13-.871 4.694-1.31.49-.138.787.025.835.516.088.907.132 1.818.195 2.728.008.124.019.247.036.45.186-.103.324-.139.404-.228 1.423-1.586 2.785-3.205 3.2-5.397.045-.235.306-.509.537-.617 1.118-.521 2.289-.934 3.384-1.496 1.138-.584 2.24-1.281 2.76-2.543.221-.537.497-1.153.425-1.689-.181-1.335.6-2.092 1.437-2.843.956-.856 1.678-1.853 2.109-3.068.172-.484.095-.866-.224-1.251-2.194-2.653-4.691-4.958-7.668-6.717-2.808-1.659-5.604-3.34-8.428-4.971a51.74 51.74 0 0 0-3.841-1.996c-.742-.349-1.197-.908-1.608-1.566-1.331-2.125-2.813-4.131-4.899-5.583-.613-.427-1.347-.681-2.025-1.014-2.12-1.043-4.231-2.104-6.361-3.126a21.119 21.119 0 0 0-5.926-1.839c-1.304-.203-2.598-.461-3.898-.683a7.216 7.216 0 0 0-1.103-.123c-2.733-.045-5.469-.168-8.199-.08-1.579.051-3.105-.012-4.637-.389-1.246-.307-2.226-1.028-3.141-1.853-.961-.866-2.066-1.139-3.334-1.137-1.907.003-3.747.405-5.613.692-1.326.204-2.685.204-4.03.277-.491.027-.984.006-1.476.001-.871-.008-1.201.24-1.249 1.102-.051.9-.139 1.83.033 2.699.12.599.64 1.126 1.015 1.662.126.179.358.283.66.51-.264.119-.433.26-.605.265-2.087.054-4.179.112-6.157.873-1.616.621-3.228 1.261-4.794 1.994-2.558 1.199-5.039 2.575-7.772 3.354-1.885.538-3.798.978-5.698 1.464-2.307.59-4.436 1.545-6.363 2.97-1.84 1.362-3.78 2.592-5.595 3.987-1.989 1.529-3.897 3.164-5.814 4.783-1.138.961-2.225 1.983-3.34 2.971-.124.11-.286.178-.491.303-.041-.19-.125-.336-.085-.432.437-1.075.19-2.173.078-3.25-.231-2.22-.526-4.433-.807-6.647-.223-1.761-.343-3.513-.029-5.282.268-1.509.813-2.894 1.562-4.219.406-.717.345-.739-.493-.858-1.342-.191-2.682-.389-3.958-.915-1.2-.495-2.115-1.332-2.98-2.246-.127-.134-.138-.377-.203-.569.194-.024.393-.087.582-.066 2.086.231 4.198.32 6.197-.325 1.34-.433 2.63-1.162 3.79-1.976 1.815-1.273 3.486-2.749 5.247-4.102.839-.645 1.745-1.206 2.622-1.802.13-.089.292-.141.397-.251.165-.174.293-.381.436-.575-.215-.091-.424-.24-.646-.264-.95-.102-1.905-.242-2.855-.222-.727.015-1.449.252-2.175.382-.178.033-.362.033-.543.049l-.068-.194c.345-.168.678-.363 1.035-.499 1.142-.438 2.281-.893 3.445-1.265.854-.273 1.74-.455 2.622-.628 3.654-.719 7.355-.598 11.048-.562 1.926.019 3.839-.054 5.566-1 1.185-.649 2.298-1.434 3.424-2.185 1.922-1.282 3.92-2.394 6.201-2.899.607-.135 1.228-.203 1.838-.325.27-.054.528-.167.791-.253l-.021-.237c-.765-.094-1.531-.265-2.295-.259-.761.005-1.52.19-2.341.209.245-.207.46-.48.74-.609 1.378-.634 2.618-1.635 4.212-1.71 1.254-.06 2.515-.122 3.767-.064 1.826.084 3.615-.067 5.315-.729a44.275 44.275 0 0 0 5.994-2.861c2.922-1.68 5.746-3.596 9.042-4.512 1.291-.359 2.645-.49 4.109-.75-.032-.306-.043-.701-.12-1.083-.43-2.123-.736-4.258-.364-6.418.129-.751.432-1.473.784-2.225.452.749.703 1.574 1.49 1.997.711.382 1.277 1.055 2.194 1.096-.037-.647-.067-1.269-.108-1.889-.083-1.234.341-2.311 1.02-3.307.09-.132.257-.211.389-.314.099.132.264.253.287.397.285 1.804 1.609 2.541 3.15 2.931.899.227 1.864.196 2.8.268.137.01.28-.054.478-.095l-2.848-1.765.092-.167c.686.109 1.382.174 2.055.334 2.4.569 4.669-.061 6.936-.713 3.102-.893 6.177-1.888 9.305-2.673 1.956-.491 3.986-.328 5.981 0 .267.044.541.051.812.075l.042-.172-.612-.397.011-.193c.189 0 .416-.069.562.011.994.542 2.084.573 3.159.553a73.897 73.897 0 0 0 4.888-.262c1.624-.14 3.215.035 4.805.317 2.176.385 4.365.71 6.528 1.158 1.761.364 3.491.87 5.236 1.309.177.045.36.061.541.091l.099-.204-1.365-.93.045-.171c.196.026.403.023.587.086 1.992.681 3.954 1.463 5.976 2.039 2.465.704 4.664 1.844 6.55 3.557a126.204 126.204 0 0 1 4.465 4.285c.664.665 1.216 1.441 1.824 2.163.532.631.792.69 1.324.076.37-.427.576-1.001.826-1.524.103-.215.128-.467.304-.705 2.262 3.259 2.83 6.806 1.843 10.727 1.193-.134 1.667-1.094 2.472-1.903.2 1.208.289 2.234-.228 3.27 1.655-.374 2.289-1.584 2.616-3.074l.291.118c.038 1.555.138 3.112-.143 4.664a9.814 9.814 0 0 1-1.873 4.279c.592.389 1.475.372 1.98.05.12-.077.306-.051.463-.072-.006.162.041.349-.024.48-.413.835-.922 1.595-1.759 2.078-.357.206-.388.452.004.643 3.512 1.713 6.172 4.334 8.222 7.628.661 1.063 2.851 3.163 3.623 3.582.121-.661-.412-2.051-1.552-3.328-.816-.914-1.856-1.628-2.763-2.554.674.293 1.368.547 2.017.887 1.402.734 2.67 1.631 3.601 2.961.756 1.082 1.269 2.24 1.347 3.561.049.832.656 1.186 1.231 1.585 1.451 1.005 2.912 1.997 4.345 3.027.182.131.28.448.319.694.065.412.223.658.643.808.847.302 1.684.641 2.498 1.024 1.076.507 1.702 1.393 2.039 2.529.211.711.951.822 1.512 1.051 3.111 1.267 6.17 2.603 8.865 4.675 1.662 1.278 2.87 2.883 3.868 4.685.095.171.189.348.315.496.279.326.232.638.015.966-1.003 1.517-2.005 3.036-3.007 4.555-.32.484-.396.968-.358 1.585.118 1.875.068 3.754-.349 5.612a12.592 12.592 0 0 1-1.991 4.515c-.909 1.295-1.828 2.608-2.921 3.74-1.713 1.773-3.885 2.875-6.252 3.522-.774.211-1.096.729-1.468 1.305-.875 1.356-1.764 2.743-3.321 3.383-.861.354-1.827.455-2.751.642-.134.027-.352-.063-.433-.173-.053-.072.063-.278.118-.418.399-1.034.84-2.054 1.189-3.104.159-.479-.146-.695-.665-.592-2.13.421-4.208 1.031-6.019 2.248-1.194.802-2.287 1.769-3.35 2.744-.761.698-1.482 1.473-2.069 2.32-1.042 1.501-1.637 3.209-1.922 5.016a34.473 34.473 0 0 0-.276 2.199c-.027.289-.062.706.099.85.169.151.6.13.86.032.471-.178.89-.486 1.346-.71.97-.477 1.433-.161 1.521.936.096 1.192-.345 2.182-1.038 3.092-.76.998-1.524 1.996-2.593 2.702-.12.08-.285.239-.275.346.112 1.216-.356 2.41.023 3.658a6.982 6.982 0 0 1-.01 4.147c-.28.907-.763 1.627-1.568 2.116-1.169.71-2.349 1.404-3.53 2.095-.586.343-.964.752-.827 1.519.061.347-.054.742-.163 1.091-.04.13-.297.276-.45.27-.424-.017-.904-.001-1.256-.192-1.297-.705-2.328-.161-3.32.607-.464.36-.851.821-1.316 1.179-.821.632-.892 1.532-.908 2.436-.008.48.119.965.2 1.445.094.559-.112.792-.659.71-.614-.093-1.237-.154-1.834-.311-.343-.09-.667-.312-.959-.528-.525-.388-.832-.379-1.12.225a5.561 5.561 0 0 0-.509 1.645c-.107.826-.077 1.67-.129 2.505-.012.188-.079.484-.196.527-.145.054-.416-.053-.551-.178-.901-.834-1.637-1.795-2.161-2.913-.751-1.599-1.775-2.932-3.436-3.709-1.374-.642-2.084-1.9-2.743-3.186-.115-.223-.332-.393-.503-.587-.184.193-.398.365-.543.583-.189.285-.323.606-.481.912l-.201.015c-.218-.604-.488-1.195-.641-1.815-.168-.681-.19-1.399-.356-2.081-.076-.31-.281-.689-.542-.838-1.245-.709-1.913-1.752-2.046-3.163-.044-.469-.103-.937-.151-1.405-.036-.35-.064-.517-.529-.725-1.065-.476-1.987-1.27-2.974-1.923-.186-.123-.408-.191-.614-.284-.086.239-.209.473-.249.72-.053.325-.041.66-.057.991-.31-.124-.624-.236-.927-.374-.201-.092-.384-.222-.576-.335l-.128.115c.192.274.365.565.579.821 1.35 1.612 2.747 3.187 4.055 4.833 1.862 2.344 3.024 5.029 3.584 7.965.255 1.335.425 2.688.625 4.034.029.193.042.4.001.588-.041.191-.157.367-.24.55-.141-.133-.303-.251-.42-.402-1.549-2.003-3.035-4.064-5.571-4.975-.44-.159-.609-.1-.807.307a18.105 18.105 0 0 1-2.909 4.318c-1.449 1.591-3.15 2.887-4.772 4.275-.155.132-.368.195-.629.329.083-.798.218-1.452.206-2.103-.037-1.978-.407-3.86-1.763-5.421-.401-.462-.555-.479-.82.086-1.034 2.203-2.149 4.375-3.046 6.633-.863 2.174-1.37 4.463-1.343 6.836.01.925-.071 1.857.017 2.774.177 1.842.431 3.676.679 5.51.037.273.217.526.331.788l-.099.143c-.411-.187-.847-.332-1.227-.568-1.804-1.118-3.104-2.716-4.029-4.583-1.105-2.232-2.019-4.559-3.131-6.787-.984-1.972-2.085-3.933-3.822-5.335-1.685-1.361-3.499-2.583-5.347-3.72a174.24 174.24 0 0 0-8.119-4.682c-1.827-.992-3.725-1.867-5.635-2.695-2.912-1.262-5.858-2.447-8.799-3.643-.754-.306-1.524-.636-2.318-.768-1.246-.209-2.517-.274-3.78-.373-.837-.065-1.684-.037-2.514-.144-.446-.057-.866-.311-1.298-.477l-.009-.172c.358-.093.721-.172 1.073-.282 1.211-.378 2.421-.759 3.622-1.167.14-.048.221-.268.33-.408-.172-.049-.36-.171-.513-.136-1.826.419-3.558-.049-5.288-.534-.28-.079-.554-.182-.821-.271 1.563-1.387 3.16-2.741 4.677-4.181.748-.71 1.382-1.551 2.003-2.381.987-1.319 1.875-2.715 2.895-4.008.515-.653 1.214-1.165 1.854-1.713.418-.358.904-.262 1.397-.132 1.248.329 1.909 1.391 2.804 2.167.647.561.571 1.132.272 1.817-.652 1.495-.739 3.05-.38 4.633.096.42.206.836.319 1.251.163.597.248.613.802.318.666-.355 1.351-.675 2.028-1.01l.171.132c-.231.645-.537 1.274-.673 1.939-.141.689-.118 1.413-.167 2.122.043.036.096.068.149.099z"/><path class="dst1" d="M26.013 107.079c.37-.51 3.604-2.398 5.372-5.069 4.356-6.58 11.908-33.17 15.466-38.609 1.999-3.057 5.194-6.141 8.329-8.08.916-.567 2.522-1.187 3.232-2.191-5.583-.254-17.116-.361-21.667 1.097-2.799.897-5.237 2.252-7.114 4.067-1.101 1.064-4.097 4.291-4.29 6.532 1.203-1.537 3.86-3.597 6-4.83 2.492-1.436 4.976-2.267 8.276-2.568-1.9 1.445-8.944 3.631-14.062 10.553-8.168 11.049-10.896 32.622-19.083 41.89-2.599 2.942-6.087 4.541-6.471 5.549l43.218.015c6.289 0 8.96.359 14.871-3.775 3.427-2.396 7.113-7.985 7.293-11.111-3.091 3.928-6.234 6.575-12.33 6.576l-27.04-.046zm57.571-11.347c3.248-3.097 4.227-3.187 6.188-8.451 7.389-19.845 5.639-22.239 22.172-22.109-.968 1.586-2.474 2.109-3.838 4.072-2.248 3.234-4.762 11.496-6.35 15.64-1.331 3.472-2.224 7.08-5.519 9.19-3.14 2.011-8.155 2.114-12.653 1.658zm8.31-33.515c-1.306.232-5.48 2.811-6.5 3.653-4.092 3.375-1.787 1.465-3.972 3.89-3.9 4.326-5.294 9.864-7.575 16.031-1.866 5.045-5.62 11.703-.571 15.36 2.935 2.125 15.236 1.287 19.769 1.287 7.969 0 12.109.748 17.689-3.367 1.462-1.078 1.489-1.145 2.599-2.641 3.961-5.342 8.941-27.388 14.233-32.982 3.204-3.387 3.974-3.209 5.631-4.845-12.252.478-25.839.148-38.185.148-6.232-.001-13.314 3.705-14.346 9.088.859-.388 6.315-6.353 11.228-5.622zm52.524 40.21l-7.198-21.255c-2.58 4.962-3.513 12.319-6.987 16.085-4.04 4.379-10.273 6.141-18.113 5.063 1.296-1.231 2.102-1.064 4.715-3.703 3.76-3.797 4.276-6.67 6.071-11.285.835-2.147 1.589-4.263 2.402-6.473 1.847-5.017 2.839-7.71 5.952-11.433 2.307-2.759 6.816-6.127 10.129-7.232-2.017-.23-4.692.935-6.315 1.895-2.249 1.331-3.557 3.144-4.845 3.737.516-3.076 4.365-6.151 6.999-7.506 4.386-2.257 8.296-1.393 13.591-1.609l6.145 23.722.991-2.019c1.292-3.671 4.657-13.332 6.171-15.465 4.018-5.657 9.485-6.543 18.442-6.158-1.153 1.627-6.022 2.993-9.176 11.159-1.892 4.9-3.579 9.741-5.465 14.85-5.273 14.272-6.099 17.739-23.509 17.627zm76.469-37.273c4.051.001 2.744-.617 4.894-2.805.757-.771 1.043-1.042 2.124-1.808 1.596-1.129 1.524-.687 2.264-1.798l-33.54.011c-4.398 0-6.738.586-9.87 2.6-3.318 2.133-3.345 2.977-5.371 6.458.76-.14 6.934-6.66 11.184-5.569-1.946 1.051-3.526 1.65-5.295 2.901-.961.68-1.285 1.1-2.152 1.777-2.758 2.154-7.472 8.123-7.48 12.166-.011 5.929 3.957 5.926 9.851 7.118 4.05.819 11.488 1.666 11.025 4.902-.754 5.269-8.48 4.718-11.726 4.718-20.189.001-14.144-1.383-19.385 3.538-1.142 1.072-2.832 1.826-3.895 3.014 10.198.437 25.947.06 36.72.06 6.143 0 14.067-2.47 15.711-9.134-1.524.694-1.402 1.829-4.946 3.752-1.816.986-3.944 1.939-6.355 1.892 3.993-1.25 7.079-4.136 9.391-6.387 1.793-1.747 5.713-6.403 5.633-10.198-.151-7.192-14.366-6.336-20.803-11.038.16-5.472 5.024-6.162 10.547-6.166l11.474-.004zm-181.23 37.167c2.919-2.633 5.458-2.998 8.449-8.851 3.718-7.277 4.964-17.303 10.694-24.052 1.221-1.439 3.198-3.154 4.671-4.167 2.011-1.383 3.15-1.991 5.486-3.047-4.568-.668-10.069 5.001-11.208 5.65 1.97-4.462 4.162-6.583 8.859-8.276 4.638-1.672 13.441.01 16.107-.975-.272.812-1.972 1.489-2.763 2.152-3.302 2.767-5.121 5.24-6.757 9.637-2.002 5.38-4.016 10.736-5.903 16.049-2.826 7.957-5.286 15.691-16.519 16.003-2.984.081-8.308.241-11.116-.123z"/></symbol><symbol viewBox="0 0 548.358 548.358" id="vk" xmlns="http://www.w3.org/2000/svg"><path d="M545.451 400.298c-.664-1.431-1.283-2.618-1.858-3.569-9.514-17.135-27.695-38.167-54.532-63.102l-.567-.571-.284-.28-.287-.287h-.288c-12.18-11.611-19.893-19.418-23.123-23.415-5.91-7.614-7.234-15.321-4.004-23.13 2.282-5.9 10.854-18.36 25.696-37.397 7.807-10.089 13.99-18.175 18.556-24.267 32.931-43.78 47.208-71.756 42.828-83.939l-1.701-2.847c-1.143-1.714-4.093-3.282-8.846-4.712-4.764-1.427-10.853-1.663-18.278-.712l-82.224.568c-1.332-.472-3.234-.428-5.712.144l-3.713.859-1.431.715-1.136.859c-.952.568-1.999 1.567-3.142 2.995-1.137 1.423-2.088 3.093-2.848 4.996-8.952 23.031-19.13 44.444-30.553 64.238-7.043 11.803-13.511 22.032-19.418 30.693-5.899 8.658-10.848 15.037-14.842 19.126-4 4.093-7.61 7.372-10.852 9.849-3.237 2.478-5.708 3.525-7.419 3.142-1.715-.383-3.33-.763-4.859-1.143-2.663-1.714-4.805-4.045-6.42-6.995-1.622-2.95-2.714-6.663-3.285-11.136-.568-4.476-.904-8.326-1-11.563-.089-3.233-.048-7.806.145-13.706.198-5.903.287-9.897.287-11.991 0-7.234.141-15.085.424-23.555.288-8.47.521-15.181.716-20.125.194-4.949.284-10.185.284-15.705s-.336-9.849-1-12.991a44.442 44.442 0 0 0-2.99-9.137c-1.335-2.95-3.289-5.232-5.853-6.852-2.569-1.618-5.763-2.902-9.564-3.856-10.089-2.283-22.936-3.518-38.547-3.71-35.401-.38-58.148 1.906-68.236 6.855-3.997 2.091-7.614 4.948-10.848 8.562-3.427 4.189-3.905 6.475-1.431 6.851 11.422 1.711 19.508 5.804 24.267 12.275l1.715 3.429c1.334 2.474 2.666 6.854 3.999 13.134 1.331 6.28 2.19 13.227 2.568 20.837.95 13.897.95 25.793 0 35.689-.953 9.9-1.853 17.607-2.712 23.127-.859 5.52-2.143 9.993-3.855 13.418-1.715 3.426-2.856 5.52-3.428 6.28-.571.76-1.047 1.239-1.425 1.427a21.387 21.387 0 0 1-7.71 1.431c-2.667 0-5.901-1.334-9.707-4-3.805-2.666-7.754-6.328-11.847-10.992-4.093-4.665-8.709-11.184-13.85-19.558-5.137-8.374-10.467-18.271-15.987-29.691l-4.567-8.282c-2.855-5.328-6.755-13.086-11.704-23.267-4.952-10.185-9.329-20.037-13.134-29.554-1.521-3.997-3.806-7.04-6.851-9.134l-1.429-.859c-.95-.76-2.475-1.567-4.567-2.427a30.301 30.301 0 0 0-6.567-1.854l-78.229.568c-7.994 0-13.418 1.811-16.274 5.428l-1.143 1.711c-.571.953-.859 2.475-.859 4.57 0 2.094.571 4.664 1.714 7.707 11.42 26.84 23.839 52.725 37.257 77.659 13.418 24.934 25.078 45.019 34.973 60.237 9.897 15.229 19.985 29.602 30.264 43.112 10.279 13.515 17.083 22.176 20.412 25.981 3.333 3.812 5.951 6.662 7.854 8.565l7.139 6.851c4.568 4.569 11.276 10.041 20.127 16.416 8.853 6.379 18.654 12.659 29.408 18.85 10.756 6.181 23.269 11.225 37.546 15.126 14.275 3.905 28.169 5.472 41.684 4.716h32.834c6.659-.575 11.704-2.669 15.133-6.283l1.136-1.431c.764-1.136 1.479-2.901 2.139-5.276.668-2.379 1-5 1-7.851-.195-8.183.428-15.558 1.852-22.124 1.423-6.564 3.045-11.513 4.859-14.846 1.813-3.33 3.859-6.14 6.136-8.418 2.282-2.283 3.908-3.666 4.862-4.142.948-.479 1.705-.804 2.276-.999 4.568-1.522 9.944-.048 16.136 4.429 6.187 4.473 11.99 9.996 17.418 16.56 5.425 6.57 11.943 13.941 19.555 22.124 7.617 8.186 14.277 14.271 19.985 18.274l5.708 3.426c3.812 2.286 8.761 4.38 14.853 6.283 6.081 1.902 11.409 2.378 15.984 1.427l73.087-1.14c7.229 0 12.854-1.197 16.844-3.572 3.998-2.379 6.373-5 7.139-7.851.764-2.854.805-6.092.145-9.712-.677-3.611-1.344-6.136-2.008-7.563z"/></symbol></svg>