<?xml version="1.0" encoding="utf-8"?>
<!-- Svg Vector Icons : http://www.onlinewebfonts.com/icon -->
<!DOCTYPE svg PUBLIC "-//W3C//DTD SVG 1.1//EN" "http://www.w3.org/Graphics/SVG/1.1/DTD/svg11.dtd">
<svg version="1.1" xmlns="http://www.w3.org/2000/svg" xmlns:xlink="http://www.w3.org/1999/xlink" x="0px" y="0px" viewBox="0 0 1000 1000" enable-background="new 0 0 1000 1000" xml:space="preserve">
<metadata> Svg Vector Icons : http://www.onlinewebfonts.com/icon </metadata>
<g><path fill="#EFB944" d="M500,656.1l-251-251l40.8-40.8L500,574.5l210.2-210.2l40.8,40.8L500,656.1L500,656.1z M10,500C10,229.8,229.8,10,500,10c270.2,0,490,219.8,490,490c0,270.2-219.8,490-490,490C229.8,990,10,770.2,10,500L10,500z M67.6,500c0,238.4,193.9,432.4,432.4,432.4c238.4,0,432.4-193.9,432.4-432.4c0-238.4-193.9-432.4-432.4-432.4S67.6,261.6,67.6,500L67.6,500z"/></g>
</svg>