<?xml version="1.0" encoding="utf-8"?>
<!-- Generator: Adobe Illustrator 20.1.0, SVG Export Plug-In . SVG Version: 6.00 Build 0)  -->
<svg version="1.1" id="Слой_1" xmlns="http://www.w3.org/2000/svg" xmlns:xlink="http://www.w3.org/1999/xlink" x="0px" y="0px"
	 viewBox="0 0 230.17 62.466" style="enable-background:new 0 0 230.17 62.466;" xml:space="preserve">
<style type="text/css">
	.st0{fill-rule:evenodd;clip-rule:evenodd;fill:#EFB944;}
</style>
<path class="st0" d="M26.013,54.101c0.37-0.51,3.604-2.397,5.372-5.069c4.356-6.58,11.908-33.17,15.466-38.609
	c1.999-3.057,5.194-6.141,8.329-8.08c0.916-0.567,2.522-1.187,3.232-2.191C52.828-0.101,41.295-0.209,36.744,1.25
	c-2.799,0.897-5.237,2.252-7.114,4.067c-1.101,1.064-4.097,4.291-4.29,6.532c1.203-1.537,3.86-3.597,6-4.83
	c2.492-1.436,4.976-2.267,8.276-2.568c-1.9,1.445-8.944,3.631-14.062,10.553c-8.168,11.049-10.896,32.622-19.083,41.89
	C3.872,59.836,0.385,61.435,0,62.443l43.218,0.015c6.289,0,8.96,0.359,14.871-3.775c3.427-2.396,7.113-7.985,7.293-11.111
	c-3.091,3.928-6.234,6.575-12.33,6.576L26.013,54.101L26.013,54.101z M83.584,42.755c3.248-3.097,4.227-3.187,6.188-8.451
	c7.389-19.845,5.639-22.239,22.172-22.109c-0.968,1.586-2.474,2.109-3.838,4.072c-2.248,3.234-4.762,11.496-6.35,15.64
	c-1.331,3.472-2.224,7.08-5.519,9.191C93.097,43.108,88.082,43.21,83.584,42.755L83.584,42.755z M91.894,9.24
	c-1.306,0.232-5.48,2.811-6.5,3.653c-4.092,3.375-1.787,1.465-3.972,3.89c-3.9,4.326-5.294,9.864-7.575,16.031
	c-1.866,5.044-5.62,11.703-0.571,15.36c2.935,2.125,15.236,1.287,19.769,1.287c7.969,0,12.109,0.748,17.689-3.367
	c1.462-1.078,1.489-1.145,2.599-2.641c3.961-5.342,8.941-27.388,14.233-32.982c3.204-3.387,3.974-3.209,5.631-4.845
	c-12.252,0.478-25.839,0.148-38.185,0.148c-6.232-0.001-13.314,3.705-14.346,9.088C81.525,14.473,86.981,8.508,91.894,9.24
	L91.894,9.24z M144.418,49.45l-7.198-21.255c-2.58,4.962-3.513,12.319-6.987,16.085c-4.04,4.379-10.273,6.141-18.113,5.063
	c1.296-1.231,2.102-1.064,4.715-3.703c3.76-3.797,4.276-6.67,6.071-11.285c0.835-2.147,1.589-4.263,2.402-6.473
	c1.847-5.017,2.839-7.711,5.952-11.434c2.307-2.759,6.816-6.127,10.129-7.232c-2.017-0.23-4.692,0.935-6.315,1.895
	c-2.249,1.331-3.557,3.144-4.845,3.737c0.516-3.076,4.365-6.151,6.999-7.506c4.386-2.257,8.296-1.393,13.591-1.609l6.145,23.722
	l0.991-2.019c1.292-3.671,4.657-13.332,6.171-15.465c4.018-5.657,9.485-6.543,18.442-6.158c-1.153,1.627-6.022,2.993-9.176,11.159
	c-1.892,4.9-3.579,9.741-5.465,14.85C162.654,46.095,161.828,49.562,144.418,49.45L144.418,49.45z M220.887,12.176
	c4.051,0.001,2.744-0.617,4.894-2.805c0.757-0.771,1.043-1.042,2.124-1.808c1.596-1.129,1.524-0.687,2.264-1.798l-33.54,0.011
	c-4.398,0-6.738,0.586-9.87,2.6c-3.318,2.133-3.345,2.977-5.371,6.458c0.76-0.14,6.934-6.66,11.184-5.569
	c-1.946,1.051-3.526,1.65-5.295,2.901c-0.961,0.68-1.285,1.1-2.152,1.777c-2.758,2.154-7.472,8.123-7.48,12.166
	c-0.011,5.929,3.957,5.926,9.851,7.118c4.05,0.819,11.488,1.667,11.025,4.902c-0.754,5.269-8.48,4.718-11.726,4.718
	c-20.189,0.001-14.144-1.383-19.385,3.538c-1.142,1.072-2.832,1.826-3.895,3.014c10.198,0.437,25.947,0.06,36.72,0.06
	c6.143,0,14.067-2.47,15.711-9.134c-1.524,0.694-1.402,1.829-4.946,3.752c-1.816,0.986-3.944,1.939-6.355,1.892
	c3.993-1.25,7.079-4.136,9.391-6.387c1.793-1.747,5.713-6.403,5.633-10.198c-0.151-7.192-14.366-6.336-20.803-11.038
	c0.16-5.472,5.024-6.162,10.547-6.166L220.887,12.176L220.887,12.176z M39.657,49.344c2.919-2.633,5.458-2.998,8.449-8.851
	c3.718-7.277,4.964-17.303,10.694-24.052c1.221-1.439,3.198-3.154,4.671-4.168c2.011-1.383,3.15-1.991,5.486-3.047
	c-4.568-0.668-10.069,5.001-11.208,5.65c1.97-4.462,4.162-6.583,8.859-8.276c4.638-1.672,13.441,0.01,16.107-0.975
	c-0.272,0.811-1.972,1.489-2.763,2.151c-3.302,2.767-5.121,5.24-6.757,9.638c-2.002,5.38-4.016,10.736-5.903,16.049
	c-2.826,7.957-5.286,15.691-16.519,16.002C47.789,49.548,42.465,49.708,39.657,49.344z"/>
</svg>
