<svg xmlns="http://www.w3.org/2000/svg" viewBox="0 0 65.382 62.465"><path class="st0" d="M26.012 54.101c.37-.51 3.604-2.398 5.372-5.069 4.356-6.58 11.908-33.17 15.466-38.609 1.999-3.057 5.194-6.141 8.329-8.08.916-.567 2.522-1.187 3.232-2.191-5.583-.254-17.116-.361-21.667 1.097-2.799.897-5.237 2.252-7.114 4.067-1.101 1.064-4.097 4.291-4.29 6.532 1.203-1.537 3.86-3.597 6-4.83 2.492-1.436 4.976-2.267 8.276-2.568-1.9 1.445-8.944 3.631-14.062 10.553-8.168 11.049-10.896 32.622-19.083 41.89C3.872 59.835.384 61.434 0 62.442l43.218.015c6.289 0 8.96.359 14.871-3.775 3.427-2.396 7.113-7.985 7.293-11.111-3.091 3.928-6.234 6.575-12.33 6.576l-27.04-.046z"/></svg>